G04 #@! TF.FileFunction,Copper,L2,Bot,Signal*
%FSLAX46Y46*%
G04 Gerber Fmt 4.6, Leading zero omitted, Abs format (unit mm)*
G04 Created by KiCad (PCBNEW 4.0.1-stable) date 2018/11/19 16:45:00*
%MOMM*%
G01*
G04 APERTURE LIST*
%ADD10C,0.100000*%
%ADD11C,0.150000*%
%ADD12C,4.064000*%
%ADD13C,1.600000*%
%ADD14R,1.800000X1.800000*%
%ADD15C,1.800000*%
%ADD16R,2.400000X1.600000*%
%ADD17O,2.400000X1.600000*%
%ADD18R,1.700000X1.200000*%
%ADD19O,1.700000X1.200000*%
%ADD20R,1.700000X1.700000*%
%ADD21O,1.700000X1.700000*%
%ADD22O,1.600000X1.600000*%
%ADD23C,2.000000*%
%ADD24C,1.500000*%
%ADD25C,1.000000*%
%ADD26C,0.254000*%
G04 APERTURE END LIST*
D10*
D11*
X138938000Y-151384000D02*
X138938000Y-111760000D01*
X174244000Y-154178000D02*
X141732000Y-154178000D01*
X177038000Y-111760000D02*
X177038000Y-151384000D01*
X141732000Y-108966000D02*
X174244000Y-108966000D01*
X174244000Y-154178000D02*
G75*
G03X177038000Y-151384000I0J2794000D01*
G01*
X138938000Y-151384000D02*
G75*
G03X141732000Y-154178000I2794000J0D01*
G01*
X177038000Y-111760000D02*
G75*
G03X174244000Y-108966000I-2794000J0D01*
G01*
X141732000Y-108966000D02*
G75*
G03X138938000Y-111760000I0J-2794000D01*
G01*
D12*
X141732000Y-151384000D03*
X174244000Y-151384000D03*
X174244000Y-111760000D03*
D13*
X167411400Y-123825000D03*
X169911400Y-123825000D03*
X151384000Y-141478000D03*
X151384000Y-138978000D03*
X151384000Y-147828000D03*
X151384000Y-145328000D03*
X148590000Y-133350000D03*
X148590000Y-135850000D03*
X154178000Y-131826000D03*
X154178000Y-134326000D03*
X156972000Y-112268000D03*
X159472000Y-112268000D03*
D14*
X169672000Y-127254000D03*
D15*
X169672000Y-129794000D03*
D14*
X169672000Y-146558000D03*
D15*
X169672000Y-144018000D03*
D16*
X156960524Y-115088000D03*
D17*
X164580524Y-148108000D03*
X156960524Y-117628000D03*
X164580524Y-145568000D03*
X156960524Y-120168000D03*
X164580524Y-143028000D03*
X156960524Y-122708000D03*
X164580524Y-140488000D03*
X156960524Y-125248000D03*
X164580524Y-137948000D03*
X156960524Y-127788000D03*
X164580524Y-135408000D03*
X156960524Y-130328000D03*
X164580524Y-132868000D03*
X156960524Y-132868000D03*
X164580524Y-130328000D03*
X156960524Y-135408000D03*
X164580524Y-127788000D03*
X156960524Y-137948000D03*
X164580524Y-125248000D03*
X156960524Y-140488000D03*
X164580524Y-122708000D03*
X156960524Y-143028000D03*
X164580524Y-120168000D03*
X156960524Y-145568000D03*
X164580524Y-117628000D03*
X156960524Y-148108000D03*
X164580524Y-115088000D03*
D18*
X145542000Y-129032000D03*
D19*
X145542000Y-131032000D03*
X145542000Y-133032000D03*
X145542000Y-135032000D03*
D20*
X151130000Y-125730000D03*
D21*
X151130000Y-128270000D03*
X151130000Y-130810000D03*
X151130000Y-133350000D03*
X151130000Y-135890000D03*
D18*
X168529000Y-119989600D03*
D19*
X168529000Y-117989600D03*
X168529000Y-115989600D03*
D13*
X168148000Y-133096000D03*
D22*
X168148000Y-140716000D03*
D13*
X153670000Y-122428000D03*
D22*
X153670000Y-114808000D03*
D13*
X171450000Y-140716000D03*
D22*
X171450000Y-133096000D03*
D23*
X145106000Y-115570000D03*
X149606000Y-115570000D03*
X145106000Y-122070000D03*
X149606000Y-122070000D03*
D24*
X147574000Y-141478000D03*
X147574000Y-146358000D03*
D12*
X141732000Y-111760000D03*
D25*
X171450000Y-133096000D02*
X171450000Y-125971998D01*
X171450000Y-125971998D02*
X170803003Y-125325001D01*
X170803003Y-125325001D02*
X168911401Y-125325001D01*
X168911401Y-125325001D02*
X168211399Y-124624999D01*
X168211399Y-124624999D02*
X167411400Y-123825000D01*
X171450000Y-133096000D02*
X169138000Y-135408000D01*
X169138000Y-135408000D02*
X164580524Y-135408000D01*
X164980524Y-135408000D02*
X164580524Y-135408000D01*
X168529000Y-119989600D02*
X168529000Y-122707400D01*
X168529000Y-122707400D02*
X167411400Y-123825000D01*
X145542000Y-133032000D02*
X145292000Y-133032000D01*
X154178000Y-131826000D02*
X152654000Y-131826000D01*
X152654000Y-131826000D02*
X151130000Y-133350000D01*
X156960524Y-130328000D02*
X155676000Y-130328000D01*
X155676000Y-130328000D02*
X154178000Y-131826000D01*
X148590000Y-133350000D02*
X151130000Y-133350000D01*
X145542000Y-133032000D02*
X148272000Y-133032000D01*
X148272000Y-133032000D02*
X148590000Y-133350000D01*
X154469999Y-128237475D02*
X156560524Y-130328000D01*
X156560524Y-130328000D02*
X156960524Y-130328000D01*
X156960524Y-130328000D02*
X157360524Y-130328000D01*
X164566000Y-135408000D02*
X164580524Y-135408000D01*
X156960524Y-130328000D02*
X159500524Y-130328000D01*
X159500524Y-130328000D02*
X164580524Y-135408000D01*
X150812000Y-133032000D02*
X151130000Y-133350000D01*
X156960524Y-130328000D02*
X156960524Y-130309334D01*
X164180524Y-135408000D02*
X164580524Y-135408000D01*
X168779000Y-119989600D02*
X168529000Y-119989600D01*
X154469999Y-123227999D02*
X154469999Y-128237475D01*
X153670000Y-122428000D02*
X154469999Y-123227999D01*
X154178000Y-134326000D02*
X155502524Y-134326000D01*
X155502524Y-134326000D02*
X156960524Y-132868000D01*
X147574000Y-141478000D02*
X151384000Y-141478000D01*
X151384000Y-141478000D02*
X151384000Y-141198002D01*
X151384000Y-141198002D02*
X155060514Y-137521488D01*
X155060514Y-137521488D02*
X155060514Y-137308010D01*
X155060514Y-137308010D02*
X156960524Y-135408000D01*
X156960524Y-135408000D02*
X156960524Y-135426666D01*
X156560524Y-135408000D02*
X156960524Y-135408000D01*
X147574000Y-146358000D02*
X149914000Y-146358000D01*
X149914000Y-146358000D02*
X151384000Y-147828000D01*
X151384000Y-147828000D02*
X152884001Y-146327999D01*
X152884001Y-146327999D02*
X152884001Y-141624523D01*
X152884001Y-141624523D02*
X156560524Y-137948000D01*
X156560524Y-137948000D02*
X156960524Y-137948000D01*
X156960524Y-137948000D02*
X156960524Y-137966666D01*
X156960524Y-137948000D02*
X157360524Y-137948000D01*
X156972000Y-112268000D02*
X156972000Y-115076524D01*
X156972000Y-115076524D02*
X156960524Y-115088000D01*
X156960524Y-115088000D02*
X156960524Y-114819476D01*
X156960524Y-115088000D02*
X156960524Y-115073476D01*
X156703476Y-112268000D02*
X156972000Y-112268000D01*
X149606000Y-122070000D02*
X149606000Y-124206000D01*
X149606000Y-124206000D02*
X151130000Y-125730000D01*
X150368000Y-114808000D02*
X149606000Y-115570000D01*
X156680524Y-114808000D02*
X156960524Y-115088000D01*
X156934524Y-115062000D02*
X156960524Y-115088000D01*
X153670000Y-114808000D02*
X150368000Y-114808000D01*
X153670000Y-114808000D02*
X156680524Y-114808000D01*
X169672000Y-129794000D02*
X169672000Y-131572000D01*
X169672000Y-131572000D02*
X168148000Y-133096000D01*
X145542000Y-131032000D02*
X144831998Y-131032000D01*
X143991999Y-130192001D02*
X143991999Y-125756001D01*
X144831998Y-131032000D02*
X143991999Y-130192001D01*
X143991999Y-125756001D02*
X147905999Y-121842001D01*
X151531998Y-117628000D02*
X154760524Y-117628000D01*
X147905999Y-121842001D02*
X147905999Y-121253999D01*
X147905999Y-121253999D02*
X151531998Y-117628000D01*
X154760524Y-117628000D02*
X156960524Y-117628000D01*
X156960524Y-117628000D02*
X156560524Y-117628000D01*
X145542000Y-131032000D02*
X150908000Y-131032000D01*
X150908000Y-131032000D02*
X151130000Y-130810000D01*
X156960524Y-117628000D02*
X156960524Y-117646666D01*
X156960524Y-117628000D02*
X157680526Y-117628000D01*
X156960524Y-120168000D02*
X153709998Y-120168000D01*
X153709998Y-120168000D02*
X152169999Y-121707999D01*
X152169999Y-121707999D02*
X152169999Y-123809997D01*
X152169999Y-123809997D02*
X152680001Y-124319999D01*
X152680001Y-124319999D02*
X152680001Y-127922080D01*
X152680001Y-127922080D02*
X152332081Y-128270000D01*
X152332081Y-128270000D02*
X151130000Y-128270000D01*
X157360524Y-120168000D02*
X156960524Y-120168000D01*
X156960524Y-120168000D02*
X156960524Y-120186666D01*
X156960524Y-120168000D02*
X156560524Y-120168000D01*
X145542000Y-129032000D02*
X150368000Y-129032000D01*
X150368000Y-129032000D02*
X151130000Y-128270000D01*
X145292000Y-129032000D02*
X145542000Y-129032000D01*
X168148000Y-140716000D02*
X167348001Y-141515999D01*
X167348001Y-141515999D02*
X167348001Y-145740523D01*
X167348001Y-145740523D02*
X164980524Y-148108000D01*
X164980524Y-148108000D02*
X164580524Y-148108000D01*
X171450000Y-140716000D02*
X171450000Y-142240000D01*
X171450000Y-142240000D02*
X169672000Y-144018000D01*
X168529000Y-117989600D02*
X166758924Y-117989600D01*
X166758924Y-117989600D02*
X164580524Y-120168000D01*
D26*
G36*
X171991124Y-110251831D02*
X171585462Y-111228772D01*
X171584539Y-112286587D01*
X171988495Y-113264235D01*
X172735831Y-114012876D01*
X173712772Y-114418538D01*
X174770587Y-114419461D01*
X175748235Y-114015505D01*
X176336000Y-113428765D01*
X176336000Y-149715974D01*
X175752169Y-149131124D01*
X174775228Y-148725462D01*
X173717413Y-148724539D01*
X172739765Y-149128495D01*
X171991124Y-149875831D01*
X171585462Y-150852772D01*
X171584539Y-151910587D01*
X171988495Y-152888235D01*
X172575235Y-153476000D01*
X143400026Y-153476000D01*
X143984876Y-152892169D01*
X144390538Y-151915228D01*
X144391461Y-150857413D01*
X143987505Y-149879765D01*
X143240169Y-149131124D01*
X142263228Y-148725462D01*
X141205413Y-148724539D01*
X140227765Y-149128495D01*
X139640000Y-149715235D01*
X139640000Y-138761223D01*
X149937035Y-138761223D01*
X149964222Y-139331454D01*
X150130136Y-139732005D01*
X150376255Y-139806139D01*
X151204395Y-138978000D01*
X150376255Y-138149861D01*
X150130136Y-138223995D01*
X149937035Y-138761223D01*
X139640000Y-138761223D01*
X139640000Y-137970255D01*
X150555861Y-137970255D01*
X151384000Y-138798395D01*
X152212139Y-137970255D01*
X152138005Y-137724136D01*
X151600777Y-137531035D01*
X151030546Y-137558222D01*
X150629995Y-137724136D01*
X150555861Y-137970255D01*
X139640000Y-137970255D01*
X139640000Y-136857745D01*
X147761861Y-136857745D01*
X147835995Y-137103864D01*
X148373223Y-137296965D01*
X148943454Y-137269778D01*
X149344005Y-137103864D01*
X149418139Y-136857745D01*
X148590000Y-136029605D01*
X147761861Y-136857745D01*
X139640000Y-136857745D01*
X139640000Y-135349609D01*
X144098538Y-135349609D01*
X144113714Y-135441376D01*
X144360067Y-135861125D01*
X144748299Y-136154647D01*
X145219304Y-136277256D01*
X145415000Y-136114547D01*
X145415000Y-135159000D01*
X145669000Y-135159000D01*
X145669000Y-136114547D01*
X145864696Y-136277256D01*
X146335701Y-136154647D01*
X146723933Y-135861125D01*
X146857689Y-135633223D01*
X147143035Y-135633223D01*
X147170222Y-136203454D01*
X147336136Y-136604005D01*
X147582255Y-136678139D01*
X148410395Y-135850000D01*
X147582255Y-135021861D01*
X147336136Y-135095995D01*
X147143035Y-135633223D01*
X146857689Y-135633223D01*
X146970286Y-135441376D01*
X146985462Y-135349609D01*
X146860731Y-135159000D01*
X145669000Y-135159000D01*
X145415000Y-135159000D01*
X144223269Y-135159000D01*
X144098538Y-135349609D01*
X139640000Y-135349609D01*
X139640000Y-125756001D01*
X142864999Y-125756001D01*
X142864999Y-130192001D01*
X142950787Y-130623285D01*
X143195090Y-130988910D01*
X144035089Y-131828909D01*
X144400714Y-132073212D01*
X144501795Y-132093318D01*
X144395444Y-132164380D01*
X144129464Y-132562447D01*
X144036064Y-133032000D01*
X144129464Y-133501553D01*
X144395444Y-133899620D01*
X144589590Y-134029344D01*
X144360067Y-134202875D01*
X144113714Y-134622624D01*
X144098538Y-134714391D01*
X144223269Y-134905000D01*
X145415000Y-134905000D01*
X145415000Y-134885000D01*
X145669000Y-134885000D01*
X145669000Y-134905000D01*
X146860731Y-134905000D01*
X146985462Y-134714391D01*
X146970286Y-134622624D01*
X146723933Y-134202875D01*
X146665901Y-134159000D01*
X147381265Y-134159000D01*
X147780614Y-134559047D01*
X147852986Y-134589098D01*
X147835995Y-134596136D01*
X147761861Y-134842255D01*
X148590000Y-135670395D01*
X149418139Y-134842255D01*
X149344005Y-134596136D01*
X149326315Y-134589777D01*
X149397275Y-134560457D01*
X149480878Y-134477000D01*
X150180291Y-134477000D01*
X150399939Y-134623764D01*
X150248642Y-134694817D01*
X149858355Y-135123076D01*
X149856718Y-135127028D01*
X149843864Y-135095995D01*
X149597745Y-135021861D01*
X148769605Y-135850000D01*
X149597745Y-136678139D01*
X149837260Y-136605994D01*
X149858355Y-136656924D01*
X150248642Y-137085183D01*
X150773108Y-137331486D01*
X151003000Y-137210819D01*
X151003000Y-136017000D01*
X151257000Y-136017000D01*
X151257000Y-137210819D01*
X151486892Y-137331486D01*
X152011358Y-137085183D01*
X152401645Y-136656924D01*
X152571476Y-136246890D01*
X152450155Y-136017000D01*
X151257000Y-136017000D01*
X151003000Y-136017000D01*
X150983000Y-136017000D01*
X150983000Y-135763000D01*
X151003000Y-135763000D01*
X151003000Y-135743000D01*
X151257000Y-135743000D01*
X151257000Y-135763000D01*
X152450155Y-135763000D01*
X152571476Y-135533110D01*
X152401645Y-135123076D01*
X152011358Y-134694817D01*
X151860061Y-134623764D01*
X152203333Y-134394397D01*
X152393879Y-134109223D01*
X152731035Y-134109223D01*
X152758222Y-134679454D01*
X152924136Y-135080005D01*
X153170255Y-135154139D01*
X153998395Y-134326000D01*
X153170255Y-133497861D01*
X152924136Y-133571995D01*
X152731035Y-134109223D01*
X152393879Y-134109223D01*
X152523506Y-133915223D01*
X152614114Y-133459704D01*
X153120819Y-132953000D01*
X153286710Y-132953000D01*
X153368614Y-133035047D01*
X153440986Y-133065098D01*
X153423995Y-133072136D01*
X153349861Y-133318255D01*
X154178000Y-134146395D01*
X154192142Y-134132252D01*
X154371748Y-134311858D01*
X154357605Y-134326000D01*
X154371748Y-134340142D01*
X154192142Y-134519748D01*
X154178000Y-134505605D01*
X153349861Y-135333745D01*
X153423995Y-135579864D01*
X153961223Y-135772965D01*
X154531454Y-135745778D01*
X154932005Y-135579864D01*
X155006139Y-135333747D01*
X155102036Y-135429644D01*
X155142357Y-135632349D01*
X154263605Y-136511101D01*
X154019302Y-136876726D01*
X153996419Y-136991765D01*
X152674864Y-138313320D01*
X152637864Y-138223995D01*
X152391745Y-138149861D01*
X151563605Y-138978000D01*
X151577748Y-138992142D01*
X151398142Y-139171748D01*
X151384000Y-139157605D01*
X150555861Y-139985745D01*
X150629995Y-140231864D01*
X150647685Y-140238223D01*
X150576725Y-140267543D01*
X150493122Y-140351000D01*
X148394640Y-140351000D01*
X148355026Y-140311317D01*
X147849104Y-140101240D01*
X147301299Y-140100762D01*
X146795011Y-140309956D01*
X146407317Y-140696974D01*
X146197240Y-141202896D01*
X146196762Y-141750701D01*
X146405956Y-142256989D01*
X146792974Y-142644683D01*
X147298896Y-142854760D01*
X147846701Y-142855238D01*
X148352989Y-142646044D01*
X148394105Y-142605000D01*
X150492710Y-142605000D01*
X150574614Y-142687047D01*
X151098907Y-142904752D01*
X151666603Y-142905248D01*
X151757001Y-142867896D01*
X151757001Y-143937188D01*
X151600777Y-143881035D01*
X151030546Y-143908222D01*
X150629995Y-144074136D01*
X150555861Y-144320255D01*
X151384000Y-145148395D01*
X151398143Y-145134253D01*
X151577748Y-145313858D01*
X151563605Y-145328000D01*
X151577748Y-145342143D01*
X151398143Y-145521748D01*
X151384000Y-145507605D01*
X151369858Y-145521748D01*
X151190252Y-145342142D01*
X151204395Y-145328000D01*
X150376255Y-144499861D01*
X150130136Y-144573995D01*
X149937035Y-145111223D01*
X149943021Y-145236773D01*
X149914000Y-145231000D01*
X148394640Y-145231000D01*
X148355026Y-145191317D01*
X147849104Y-144981240D01*
X147301299Y-144980762D01*
X146795011Y-145189956D01*
X146407317Y-145576974D01*
X146197240Y-146082896D01*
X146196762Y-146630701D01*
X146405956Y-147136989D01*
X146792974Y-147524683D01*
X147298896Y-147734760D01*
X147846701Y-147735238D01*
X148352989Y-147526044D01*
X148394105Y-147485000D01*
X149447182Y-147485000D01*
X149956853Y-147994671D01*
X149956752Y-148110603D01*
X150173543Y-148635275D01*
X150574614Y-149037047D01*
X151098907Y-149254752D01*
X151666603Y-149255248D01*
X152191275Y-149038457D01*
X152593047Y-148637386D01*
X152810752Y-148113093D01*
X152810855Y-147994963D01*
X153680911Y-147124908D01*
X153925213Y-146759283D01*
X154011001Y-146327999D01*
X154011001Y-142091341D01*
X155183442Y-140918900D01*
X155206355Y-141034089D01*
X155515690Y-141497041D01*
X155906242Y-141758000D01*
X155515690Y-142018959D01*
X155206355Y-142481911D01*
X155097731Y-143028000D01*
X155206355Y-143574089D01*
X155515690Y-144037041D01*
X155906242Y-144298000D01*
X155515690Y-144558959D01*
X155206355Y-145021911D01*
X155097731Y-145568000D01*
X155206355Y-146114089D01*
X155515690Y-146577041D01*
X155906242Y-146838000D01*
X155515690Y-147098959D01*
X155206355Y-147561911D01*
X155097731Y-148108000D01*
X155206355Y-148654089D01*
X155515690Y-149117041D01*
X155978642Y-149426376D01*
X156524731Y-149535000D01*
X157396317Y-149535000D01*
X157942406Y-149426376D01*
X158405358Y-149117041D01*
X158714693Y-148654089D01*
X158823317Y-148108000D01*
X158714693Y-147561911D01*
X158405358Y-147098959D01*
X158014806Y-146838000D01*
X158405358Y-146577041D01*
X158714693Y-146114089D01*
X158823317Y-145568000D01*
X158714693Y-145021911D01*
X158405358Y-144558959D01*
X158014806Y-144298000D01*
X158405358Y-144037041D01*
X158714693Y-143574089D01*
X158823317Y-143028000D01*
X158714693Y-142481911D01*
X158405358Y-142018959D01*
X158014806Y-141758000D01*
X158405358Y-141497041D01*
X158714693Y-141034089D01*
X158823317Y-140488000D01*
X158714693Y-139941911D01*
X158405358Y-139478959D01*
X158014806Y-139218000D01*
X158405358Y-138957041D01*
X158714693Y-138494089D01*
X158823317Y-137948000D01*
X158714693Y-137401911D01*
X158405358Y-136938959D01*
X158014806Y-136678000D01*
X158405358Y-136417041D01*
X158714693Y-135954089D01*
X158823317Y-135408000D01*
X158714693Y-134861911D01*
X158405358Y-134398959D01*
X158025980Y-134145466D01*
X158027007Y-134145166D01*
X158465024Y-133792896D01*
X158734891Y-133299819D01*
X158752428Y-133217039D01*
X158630439Y-132995000D01*
X157087524Y-132995000D01*
X157087524Y-133015000D01*
X156833524Y-133015000D01*
X156833524Y-132995000D01*
X156813524Y-132995000D01*
X156813524Y-132741000D01*
X156833524Y-132741000D01*
X156833524Y-132721000D01*
X157087524Y-132721000D01*
X157087524Y-132741000D01*
X158630439Y-132741000D01*
X158752428Y-132518961D01*
X158734891Y-132436181D01*
X158465024Y-131943104D01*
X158027007Y-131590834D01*
X158025980Y-131590534D01*
X158228820Y-131455000D01*
X159033706Y-131455000D01*
X162762357Y-135183651D01*
X162717731Y-135408000D01*
X162826355Y-135954089D01*
X163135690Y-136417041D01*
X163526242Y-136678000D01*
X163135690Y-136938959D01*
X162826355Y-137401911D01*
X162717731Y-137948000D01*
X162826355Y-138494089D01*
X163135690Y-138957041D01*
X163526242Y-139218000D01*
X163135690Y-139478959D01*
X162826355Y-139941911D01*
X162717731Y-140488000D01*
X162826355Y-141034089D01*
X163135690Y-141497041D01*
X163526242Y-141758000D01*
X163135690Y-142018959D01*
X162826355Y-142481911D01*
X162717731Y-143028000D01*
X162826355Y-143574089D01*
X163135690Y-144037041D01*
X163526242Y-144298000D01*
X163135690Y-144558959D01*
X162826355Y-145021911D01*
X162717731Y-145568000D01*
X162826355Y-146114089D01*
X163135690Y-146577041D01*
X163526242Y-146838000D01*
X163135690Y-147098959D01*
X162826355Y-147561911D01*
X162717731Y-148108000D01*
X162826355Y-148654089D01*
X163135690Y-149117041D01*
X163598642Y-149426376D01*
X164144731Y-149535000D01*
X165016317Y-149535000D01*
X165562406Y-149426376D01*
X166025358Y-149117041D01*
X166334693Y-148654089D01*
X166410783Y-148271559D01*
X167838592Y-146843750D01*
X168137000Y-146843750D01*
X168137000Y-147584309D01*
X168233673Y-147817698D01*
X168412301Y-147996327D01*
X168645690Y-148093000D01*
X169386250Y-148093000D01*
X169545000Y-147934250D01*
X169545000Y-146685000D01*
X169799000Y-146685000D01*
X169799000Y-147934250D01*
X169957750Y-148093000D01*
X170698310Y-148093000D01*
X170931699Y-147996327D01*
X171110327Y-147817698D01*
X171207000Y-147584309D01*
X171207000Y-146843750D01*
X171048250Y-146685000D01*
X169799000Y-146685000D01*
X169545000Y-146685000D01*
X168295750Y-146685000D01*
X168137000Y-146843750D01*
X167838592Y-146843750D01*
X168144910Y-146537432D01*
X168247959Y-146383209D01*
X168295750Y-146431000D01*
X169545000Y-146431000D01*
X169545000Y-146411000D01*
X169799000Y-146411000D01*
X169799000Y-146431000D01*
X171048250Y-146431000D01*
X171207000Y-146272250D01*
X171207000Y-145531691D01*
X171110327Y-145298302D01*
X170931699Y-145119673D01*
X170789004Y-145060567D01*
X170965773Y-144884106D01*
X171198735Y-144323072D01*
X171198943Y-144084876D01*
X172246910Y-143036909D01*
X172491212Y-142671284D01*
X172577000Y-142240000D01*
X172577000Y-141607290D01*
X172659047Y-141525386D01*
X172876752Y-141001093D01*
X172877248Y-140433397D01*
X172660457Y-139908725D01*
X172259386Y-139506953D01*
X171735093Y-139289248D01*
X171167397Y-139288752D01*
X170642725Y-139505543D01*
X170240953Y-139906614D01*
X170023248Y-140430907D01*
X170022752Y-140998603D01*
X170239543Y-141523275D01*
X170323000Y-141606878D01*
X170323000Y-141773181D01*
X169605241Y-142490941D01*
X169369593Y-142490735D01*
X168808154Y-142722717D01*
X168475001Y-143055289D01*
X168475001Y-142105912D01*
X168694089Y-142062333D01*
X169157041Y-141752998D01*
X169466376Y-141290046D01*
X169575000Y-140743957D01*
X169575000Y-140688043D01*
X169466376Y-140141954D01*
X169157041Y-139679002D01*
X168694089Y-139369667D01*
X168148000Y-139261043D01*
X167601911Y-139369667D01*
X167138959Y-139679002D01*
X166829624Y-140141954D01*
X166755480Y-140514702D01*
X166551092Y-140719090D01*
X166306789Y-141084715D01*
X166221001Y-141515999D01*
X166221001Y-142311759D01*
X166025358Y-142018959D01*
X165634806Y-141758000D01*
X166025358Y-141497041D01*
X166334693Y-141034089D01*
X166443317Y-140488000D01*
X166334693Y-139941911D01*
X166025358Y-139478959D01*
X165634806Y-139218000D01*
X166025358Y-138957041D01*
X166334693Y-138494089D01*
X166443317Y-137948000D01*
X166334693Y-137401911D01*
X166025358Y-136938959D01*
X165634806Y-136678000D01*
X165848820Y-136535000D01*
X169138000Y-136535000D01*
X169569284Y-136449212D01*
X169934909Y-136204909D01*
X171623342Y-134516477D01*
X171996089Y-134442333D01*
X172459041Y-134132998D01*
X172768376Y-133670046D01*
X172877000Y-133123957D01*
X172877000Y-133068043D01*
X172768376Y-132521954D01*
X172577000Y-132235540D01*
X172577000Y-125971998D01*
X172491212Y-125540714D01*
X172246909Y-125175089D01*
X171599912Y-124528092D01*
X171264194Y-124303772D01*
X171358365Y-124041777D01*
X171331178Y-123471546D01*
X171165264Y-123070995D01*
X170919145Y-122996861D01*
X170091005Y-123825000D01*
X170105148Y-123839143D01*
X169925543Y-124018748D01*
X169911400Y-124004605D01*
X169897258Y-124018748D01*
X169717653Y-123839143D01*
X169731795Y-123825000D01*
X169717652Y-123810858D01*
X169897258Y-123631252D01*
X169911400Y-123645395D01*
X170739539Y-122817255D01*
X170665405Y-122571136D01*
X170128177Y-122378035D01*
X169656000Y-122400547D01*
X169656000Y-121156433D01*
X169824753Y-121047843D01*
X169967917Y-120838317D01*
X170018283Y-120589600D01*
X170018283Y-119389600D01*
X169974563Y-119157248D01*
X169837243Y-118943847D01*
X169686497Y-118840846D01*
X169941536Y-118459153D01*
X170034936Y-117989600D01*
X169941536Y-117520047D01*
X169675556Y-117121980D01*
X169481410Y-116992256D01*
X169710933Y-116818725D01*
X169957286Y-116398976D01*
X169972462Y-116307209D01*
X169847731Y-116116600D01*
X168656000Y-116116600D01*
X168656000Y-116136600D01*
X168402000Y-116136600D01*
X168402000Y-116116600D01*
X167210269Y-116116600D01*
X167085538Y-116307209D01*
X167100714Y-116398976D01*
X167347067Y-116818725D01*
X167405099Y-116862600D01*
X166758924Y-116862600D01*
X166327640Y-116948388D01*
X166270836Y-116986343D01*
X166025358Y-116618959D01*
X165634806Y-116358000D01*
X166025358Y-116097041D01*
X166309367Y-115671991D01*
X167085538Y-115671991D01*
X167210269Y-115862600D01*
X168402000Y-115862600D01*
X168402000Y-114907053D01*
X168656000Y-114907053D01*
X168656000Y-115862600D01*
X169847731Y-115862600D01*
X169972462Y-115671991D01*
X169957286Y-115580224D01*
X169710933Y-115160475D01*
X169322701Y-114866953D01*
X168851696Y-114744344D01*
X168656000Y-114907053D01*
X168402000Y-114907053D01*
X168206304Y-114744344D01*
X167735299Y-114866953D01*
X167347067Y-115160475D01*
X167100714Y-115580224D01*
X167085538Y-115671991D01*
X166309367Y-115671991D01*
X166334693Y-115634089D01*
X166443317Y-115088000D01*
X166334693Y-114541911D01*
X166025358Y-114078959D01*
X165562406Y-113769624D01*
X165016317Y-113661000D01*
X164144731Y-113661000D01*
X163598642Y-113769624D01*
X163135690Y-114078959D01*
X162826355Y-114541911D01*
X162717731Y-115088000D01*
X162826355Y-115634089D01*
X163135690Y-116097041D01*
X163526242Y-116358000D01*
X163135690Y-116618959D01*
X162826355Y-117081911D01*
X162717731Y-117628000D01*
X162826355Y-118174089D01*
X163135690Y-118637041D01*
X163526242Y-118898000D01*
X163135690Y-119158959D01*
X162826355Y-119621911D01*
X162717731Y-120168000D01*
X162826355Y-120714089D01*
X163135690Y-121177041D01*
X163526242Y-121438000D01*
X163135690Y-121698959D01*
X162826355Y-122161911D01*
X162717731Y-122708000D01*
X162826355Y-123254089D01*
X163135690Y-123717041D01*
X163526242Y-123978000D01*
X163135690Y-124238959D01*
X162826355Y-124701911D01*
X162717731Y-125248000D01*
X162826355Y-125794089D01*
X163135690Y-126257041D01*
X163526242Y-126518000D01*
X163135690Y-126778959D01*
X162826355Y-127241911D01*
X162717731Y-127788000D01*
X162826355Y-128334089D01*
X163135690Y-128797041D01*
X163515068Y-129050534D01*
X163514041Y-129050834D01*
X163076024Y-129403104D01*
X162806157Y-129896181D01*
X162788620Y-129978961D01*
X162910609Y-130201000D01*
X164453524Y-130201000D01*
X164453524Y-130181000D01*
X164707524Y-130181000D01*
X164707524Y-130201000D01*
X166250439Y-130201000D01*
X166372428Y-129978961D01*
X166354891Y-129896181D01*
X166085024Y-129403104D01*
X165647007Y-129050834D01*
X165645980Y-129050534D01*
X166025358Y-128797041D01*
X166334693Y-128334089D01*
X166443317Y-127788000D01*
X166334693Y-127241911D01*
X166025358Y-126778959D01*
X165634806Y-126518000D01*
X166025358Y-126257041D01*
X166334693Y-125794089D01*
X166443317Y-125248000D01*
X166350678Y-124782271D01*
X166602014Y-125034047D01*
X167126307Y-125251752D01*
X167244436Y-125251855D01*
X167414489Y-125421908D01*
X167414492Y-125421910D01*
X168114491Y-126121910D01*
X168166439Y-126156620D01*
X168137000Y-126227691D01*
X168137000Y-126968250D01*
X168295750Y-127127000D01*
X169545000Y-127127000D01*
X169545000Y-127107000D01*
X169799000Y-127107000D01*
X169799000Y-127127000D01*
X169819000Y-127127000D01*
X169819000Y-127381000D01*
X169799000Y-127381000D01*
X169799000Y-127401000D01*
X169545000Y-127401000D01*
X169545000Y-127381000D01*
X168295750Y-127381000D01*
X168137000Y-127539750D01*
X168137000Y-128280309D01*
X168233673Y-128513698D01*
X168412301Y-128692327D01*
X168554996Y-128751433D01*
X168378227Y-128927894D01*
X168145265Y-129488928D01*
X168144735Y-130096407D01*
X168376717Y-130657846D01*
X168545000Y-130826423D01*
X168545000Y-131105181D01*
X167981328Y-131668853D01*
X167865397Y-131668752D01*
X167340725Y-131885543D01*
X166938953Y-132286614D01*
X166721248Y-132810907D01*
X166720752Y-133378603D01*
X166937543Y-133903275D01*
X167314609Y-134281000D01*
X165848820Y-134281000D01*
X165634806Y-134138000D01*
X166025358Y-133877041D01*
X166334693Y-133414089D01*
X166443317Y-132868000D01*
X166334693Y-132321911D01*
X166025358Y-131858959D01*
X165645980Y-131605466D01*
X165647007Y-131605166D01*
X166085024Y-131252896D01*
X166354891Y-130759819D01*
X166372428Y-130677039D01*
X166250439Y-130455000D01*
X164707524Y-130455000D01*
X164707524Y-130475000D01*
X164453524Y-130475000D01*
X164453524Y-130455000D01*
X162910609Y-130455000D01*
X162788620Y-130677039D01*
X162806157Y-130759819D01*
X163076024Y-131252896D01*
X163514041Y-131605166D01*
X163515068Y-131605466D01*
X163135690Y-131858959D01*
X162931257Y-132164915D01*
X160297433Y-129531091D01*
X159931808Y-129286788D01*
X159500524Y-129201000D01*
X158228820Y-129201000D01*
X158014806Y-129058000D01*
X158405358Y-128797041D01*
X158714693Y-128334089D01*
X158823317Y-127788000D01*
X158714693Y-127241911D01*
X158405358Y-126778959D01*
X158014806Y-126518000D01*
X158405358Y-126257041D01*
X158714693Y-125794089D01*
X158823317Y-125248000D01*
X158714693Y-124701911D01*
X158405358Y-124238959D01*
X158014806Y-123978000D01*
X158405358Y-123717041D01*
X158714693Y-123254089D01*
X158823317Y-122708000D01*
X158714693Y-122161911D01*
X158405358Y-121698959D01*
X158014806Y-121438000D01*
X158405358Y-121177041D01*
X158714693Y-120714089D01*
X158823317Y-120168000D01*
X158714693Y-119621911D01*
X158405358Y-119158959D01*
X158014806Y-118898000D01*
X158405358Y-118637041D01*
X158714693Y-118174089D01*
X158823317Y-117628000D01*
X158714693Y-117081911D01*
X158405358Y-116618959D01*
X158244506Y-116511481D01*
X158392876Y-116483563D01*
X158606277Y-116346243D01*
X158749441Y-116136717D01*
X158799807Y-115888000D01*
X158799807Y-114288000D01*
X158756087Y-114055648D01*
X158618767Y-113842247D01*
X158409241Y-113699083D01*
X158160524Y-113648717D01*
X158099000Y-113648717D01*
X158099000Y-113275745D01*
X158643861Y-113275745D01*
X158717995Y-113521864D01*
X159255223Y-113714965D01*
X159825454Y-113687778D01*
X160226005Y-113521864D01*
X160300139Y-113275745D01*
X159472000Y-112447605D01*
X158643861Y-113275745D01*
X158099000Y-113275745D01*
X158099000Y-113159290D01*
X158181047Y-113077386D01*
X158211098Y-113005014D01*
X158218136Y-113022005D01*
X158464255Y-113096139D01*
X159292395Y-112268000D01*
X159651605Y-112268000D01*
X160479745Y-113096139D01*
X160725864Y-113022005D01*
X160918965Y-112484777D01*
X160891778Y-111914546D01*
X160725864Y-111513995D01*
X160479745Y-111439861D01*
X159651605Y-112268000D01*
X159292395Y-112268000D01*
X158464255Y-111439861D01*
X158218136Y-111513995D01*
X158211777Y-111531685D01*
X158182457Y-111460725D01*
X157982337Y-111260255D01*
X158643861Y-111260255D01*
X159472000Y-112088395D01*
X160300139Y-111260255D01*
X160226005Y-111014136D01*
X159688777Y-110821035D01*
X159118546Y-110848222D01*
X158717995Y-111014136D01*
X158643861Y-111260255D01*
X157982337Y-111260255D01*
X157781386Y-111058953D01*
X157257093Y-110841248D01*
X156689397Y-110840752D01*
X156164725Y-111057543D01*
X155762953Y-111458614D01*
X155545248Y-111982907D01*
X155544752Y-112550603D01*
X155761543Y-113075275D01*
X155845000Y-113158878D01*
X155845000Y-113648717D01*
X155760524Y-113648717D01*
X155588954Y-113681000D01*
X154544344Y-113681000D01*
X154216089Y-113461667D01*
X153670000Y-113353043D01*
X153123911Y-113461667D01*
X152795656Y-113681000D01*
X150368000Y-113681000D01*
X149936716Y-113766788D01*
X149672909Y-113943058D01*
X149283789Y-113942718D01*
X148685582Y-114189892D01*
X148227501Y-114647175D01*
X147979283Y-115244950D01*
X147978718Y-115892211D01*
X148225892Y-116490418D01*
X148683175Y-116948499D01*
X149280950Y-117196717D01*
X149928211Y-117197282D01*
X150526418Y-116950108D01*
X150984499Y-116492825D01*
X151216128Y-115935000D01*
X152795656Y-115935000D01*
X153123911Y-116154333D01*
X153670000Y-116262957D01*
X154216089Y-116154333D01*
X154544344Y-115935000D01*
X155130085Y-115935000D01*
X155164961Y-116120352D01*
X155302281Y-116333753D01*
X155511807Y-116476917D01*
X155630733Y-116501000D01*
X151531998Y-116501000D01*
X151100714Y-116586788D01*
X150735089Y-116831091D01*
X147109090Y-120457090D01*
X146864787Y-120822715D01*
X146778999Y-121253999D01*
X146778999Y-121375183D01*
X146652227Y-121501955D01*
X146525387Y-121195736D01*
X146258532Y-121097073D01*
X145285605Y-122070000D01*
X145299748Y-122084143D01*
X145120143Y-122263748D01*
X145106000Y-122249605D01*
X144133073Y-123222532D01*
X144231736Y-123489387D01*
X144547489Y-123606693D01*
X143195090Y-124959092D01*
X142950787Y-125324717D01*
X142864999Y-125756001D01*
X139640000Y-125756001D01*
X139640000Y-121805461D01*
X143460092Y-121805461D01*
X143484144Y-122455460D01*
X143686613Y-122944264D01*
X143953468Y-123042927D01*
X144926395Y-122070000D01*
X143953468Y-121097073D01*
X143686613Y-121195736D01*
X143460092Y-121805461D01*
X139640000Y-121805461D01*
X139640000Y-120917468D01*
X144133073Y-120917468D01*
X145106000Y-121890395D01*
X146078927Y-120917468D01*
X145980264Y-120650613D01*
X145370539Y-120424092D01*
X144720540Y-120448144D01*
X144231736Y-120650613D01*
X144133073Y-120917468D01*
X139640000Y-120917468D01*
X139640000Y-116722532D01*
X144133073Y-116722532D01*
X144231736Y-116989387D01*
X144841461Y-117215908D01*
X145491460Y-117191856D01*
X145980264Y-116989387D01*
X146078927Y-116722532D01*
X145106000Y-115749605D01*
X144133073Y-116722532D01*
X139640000Y-116722532D01*
X139640000Y-115305461D01*
X143460092Y-115305461D01*
X143484144Y-115955460D01*
X143686613Y-116444264D01*
X143953468Y-116542927D01*
X144926395Y-115570000D01*
X145285605Y-115570000D01*
X146258532Y-116542927D01*
X146525387Y-116444264D01*
X146751908Y-115834539D01*
X146727856Y-115184540D01*
X146525387Y-114695736D01*
X146258532Y-114597073D01*
X145285605Y-115570000D01*
X144926395Y-115570000D01*
X143953468Y-114597073D01*
X143686613Y-114695736D01*
X143460092Y-115305461D01*
X139640000Y-115305461D01*
X139640000Y-113428026D01*
X140223831Y-114012876D01*
X141200772Y-114418538D01*
X142258587Y-114419461D01*
X142263410Y-114417468D01*
X144133073Y-114417468D01*
X145106000Y-115390395D01*
X146078927Y-114417468D01*
X145980264Y-114150613D01*
X145370539Y-113924092D01*
X144720540Y-113948144D01*
X144231736Y-114150613D01*
X144133073Y-114417468D01*
X142263410Y-114417468D01*
X143236235Y-114015505D01*
X143984876Y-113268169D01*
X144390538Y-112291228D01*
X144391461Y-111233413D01*
X143987505Y-110255765D01*
X143400765Y-109668000D01*
X172575974Y-109668000D01*
X171991124Y-110251831D01*
X171991124Y-110251831D01*
G37*
X171991124Y-110251831D02*
X171585462Y-111228772D01*
X171584539Y-112286587D01*
X171988495Y-113264235D01*
X172735831Y-114012876D01*
X173712772Y-114418538D01*
X174770587Y-114419461D01*
X175748235Y-114015505D01*
X176336000Y-113428765D01*
X176336000Y-149715974D01*
X175752169Y-149131124D01*
X174775228Y-148725462D01*
X173717413Y-148724539D01*
X172739765Y-149128495D01*
X171991124Y-149875831D01*
X171585462Y-150852772D01*
X171584539Y-151910587D01*
X171988495Y-152888235D01*
X172575235Y-153476000D01*
X143400026Y-153476000D01*
X143984876Y-152892169D01*
X144390538Y-151915228D01*
X144391461Y-150857413D01*
X143987505Y-149879765D01*
X143240169Y-149131124D01*
X142263228Y-148725462D01*
X141205413Y-148724539D01*
X140227765Y-149128495D01*
X139640000Y-149715235D01*
X139640000Y-138761223D01*
X149937035Y-138761223D01*
X149964222Y-139331454D01*
X150130136Y-139732005D01*
X150376255Y-139806139D01*
X151204395Y-138978000D01*
X150376255Y-138149861D01*
X150130136Y-138223995D01*
X149937035Y-138761223D01*
X139640000Y-138761223D01*
X139640000Y-137970255D01*
X150555861Y-137970255D01*
X151384000Y-138798395D01*
X152212139Y-137970255D01*
X152138005Y-137724136D01*
X151600777Y-137531035D01*
X151030546Y-137558222D01*
X150629995Y-137724136D01*
X150555861Y-137970255D01*
X139640000Y-137970255D01*
X139640000Y-136857745D01*
X147761861Y-136857745D01*
X147835995Y-137103864D01*
X148373223Y-137296965D01*
X148943454Y-137269778D01*
X149344005Y-137103864D01*
X149418139Y-136857745D01*
X148590000Y-136029605D01*
X147761861Y-136857745D01*
X139640000Y-136857745D01*
X139640000Y-135349609D01*
X144098538Y-135349609D01*
X144113714Y-135441376D01*
X144360067Y-135861125D01*
X144748299Y-136154647D01*
X145219304Y-136277256D01*
X145415000Y-136114547D01*
X145415000Y-135159000D01*
X145669000Y-135159000D01*
X145669000Y-136114547D01*
X145864696Y-136277256D01*
X146335701Y-136154647D01*
X146723933Y-135861125D01*
X146857689Y-135633223D01*
X147143035Y-135633223D01*
X147170222Y-136203454D01*
X147336136Y-136604005D01*
X147582255Y-136678139D01*
X148410395Y-135850000D01*
X147582255Y-135021861D01*
X147336136Y-135095995D01*
X147143035Y-135633223D01*
X146857689Y-135633223D01*
X146970286Y-135441376D01*
X146985462Y-135349609D01*
X146860731Y-135159000D01*
X145669000Y-135159000D01*
X145415000Y-135159000D01*
X144223269Y-135159000D01*
X144098538Y-135349609D01*
X139640000Y-135349609D01*
X139640000Y-125756001D01*
X142864999Y-125756001D01*
X142864999Y-130192001D01*
X142950787Y-130623285D01*
X143195090Y-130988910D01*
X144035089Y-131828909D01*
X144400714Y-132073212D01*
X144501795Y-132093318D01*
X144395444Y-132164380D01*
X144129464Y-132562447D01*
X144036064Y-133032000D01*
X144129464Y-133501553D01*
X144395444Y-133899620D01*
X144589590Y-134029344D01*
X144360067Y-134202875D01*
X144113714Y-134622624D01*
X144098538Y-134714391D01*
X144223269Y-134905000D01*
X145415000Y-134905000D01*
X145415000Y-134885000D01*
X145669000Y-134885000D01*
X145669000Y-134905000D01*
X146860731Y-134905000D01*
X146985462Y-134714391D01*
X146970286Y-134622624D01*
X146723933Y-134202875D01*
X146665901Y-134159000D01*
X147381265Y-134159000D01*
X147780614Y-134559047D01*
X147852986Y-134589098D01*
X147835995Y-134596136D01*
X147761861Y-134842255D01*
X148590000Y-135670395D01*
X149418139Y-134842255D01*
X149344005Y-134596136D01*
X149326315Y-134589777D01*
X149397275Y-134560457D01*
X149480878Y-134477000D01*
X150180291Y-134477000D01*
X150399939Y-134623764D01*
X150248642Y-134694817D01*
X149858355Y-135123076D01*
X149856718Y-135127028D01*
X149843864Y-135095995D01*
X149597745Y-135021861D01*
X148769605Y-135850000D01*
X149597745Y-136678139D01*
X149837260Y-136605994D01*
X149858355Y-136656924D01*
X150248642Y-137085183D01*
X150773108Y-137331486D01*
X151003000Y-137210819D01*
X151003000Y-136017000D01*
X151257000Y-136017000D01*
X151257000Y-137210819D01*
X151486892Y-137331486D01*
X152011358Y-137085183D01*
X152401645Y-136656924D01*
X152571476Y-136246890D01*
X152450155Y-136017000D01*
X151257000Y-136017000D01*
X151003000Y-136017000D01*
X150983000Y-136017000D01*
X150983000Y-135763000D01*
X151003000Y-135763000D01*
X151003000Y-135743000D01*
X151257000Y-135743000D01*
X151257000Y-135763000D01*
X152450155Y-135763000D01*
X152571476Y-135533110D01*
X152401645Y-135123076D01*
X152011358Y-134694817D01*
X151860061Y-134623764D01*
X152203333Y-134394397D01*
X152393879Y-134109223D01*
X152731035Y-134109223D01*
X152758222Y-134679454D01*
X152924136Y-135080005D01*
X153170255Y-135154139D01*
X153998395Y-134326000D01*
X153170255Y-133497861D01*
X152924136Y-133571995D01*
X152731035Y-134109223D01*
X152393879Y-134109223D01*
X152523506Y-133915223D01*
X152614114Y-133459704D01*
X153120819Y-132953000D01*
X153286710Y-132953000D01*
X153368614Y-133035047D01*
X153440986Y-133065098D01*
X153423995Y-133072136D01*
X153349861Y-133318255D01*
X154178000Y-134146395D01*
X154192142Y-134132252D01*
X154371748Y-134311858D01*
X154357605Y-134326000D01*
X154371748Y-134340142D01*
X154192142Y-134519748D01*
X154178000Y-134505605D01*
X153349861Y-135333745D01*
X153423995Y-135579864D01*
X153961223Y-135772965D01*
X154531454Y-135745778D01*
X154932005Y-135579864D01*
X155006139Y-135333747D01*
X155102036Y-135429644D01*
X155142357Y-135632349D01*
X154263605Y-136511101D01*
X154019302Y-136876726D01*
X153996419Y-136991765D01*
X152674864Y-138313320D01*
X152637864Y-138223995D01*
X152391745Y-138149861D01*
X151563605Y-138978000D01*
X151577748Y-138992142D01*
X151398142Y-139171748D01*
X151384000Y-139157605D01*
X150555861Y-139985745D01*
X150629995Y-140231864D01*
X150647685Y-140238223D01*
X150576725Y-140267543D01*
X150493122Y-140351000D01*
X148394640Y-140351000D01*
X148355026Y-140311317D01*
X147849104Y-140101240D01*
X147301299Y-140100762D01*
X146795011Y-140309956D01*
X146407317Y-140696974D01*
X146197240Y-141202896D01*
X146196762Y-141750701D01*
X146405956Y-142256989D01*
X146792974Y-142644683D01*
X147298896Y-142854760D01*
X147846701Y-142855238D01*
X148352989Y-142646044D01*
X148394105Y-142605000D01*
X150492710Y-142605000D01*
X150574614Y-142687047D01*
X151098907Y-142904752D01*
X151666603Y-142905248D01*
X151757001Y-142867896D01*
X151757001Y-143937188D01*
X151600777Y-143881035D01*
X151030546Y-143908222D01*
X150629995Y-144074136D01*
X150555861Y-144320255D01*
X151384000Y-145148395D01*
X151398143Y-145134253D01*
X151577748Y-145313858D01*
X151563605Y-145328000D01*
X151577748Y-145342143D01*
X151398143Y-145521748D01*
X151384000Y-145507605D01*
X151369858Y-145521748D01*
X151190252Y-145342142D01*
X151204395Y-145328000D01*
X150376255Y-144499861D01*
X150130136Y-144573995D01*
X149937035Y-145111223D01*
X149943021Y-145236773D01*
X149914000Y-145231000D01*
X148394640Y-145231000D01*
X148355026Y-145191317D01*
X147849104Y-144981240D01*
X147301299Y-144980762D01*
X146795011Y-145189956D01*
X146407317Y-145576974D01*
X146197240Y-146082896D01*
X146196762Y-146630701D01*
X146405956Y-147136989D01*
X146792974Y-147524683D01*
X147298896Y-147734760D01*
X147846701Y-147735238D01*
X148352989Y-147526044D01*
X148394105Y-147485000D01*
X149447182Y-147485000D01*
X149956853Y-147994671D01*
X149956752Y-148110603D01*
X150173543Y-148635275D01*
X150574614Y-149037047D01*
X151098907Y-149254752D01*
X151666603Y-149255248D01*
X152191275Y-149038457D01*
X152593047Y-148637386D01*
X152810752Y-148113093D01*
X152810855Y-147994963D01*
X153680911Y-147124908D01*
X153925213Y-146759283D01*
X154011001Y-146327999D01*
X154011001Y-142091341D01*
X155183442Y-140918900D01*
X155206355Y-141034089D01*
X155515690Y-141497041D01*
X155906242Y-141758000D01*
X155515690Y-142018959D01*
X155206355Y-142481911D01*
X155097731Y-143028000D01*
X155206355Y-143574089D01*
X155515690Y-144037041D01*
X155906242Y-144298000D01*
X155515690Y-144558959D01*
X155206355Y-145021911D01*
X155097731Y-145568000D01*
X155206355Y-146114089D01*
X155515690Y-146577041D01*
X155906242Y-146838000D01*
X155515690Y-147098959D01*
X155206355Y-147561911D01*
X155097731Y-148108000D01*
X155206355Y-148654089D01*
X155515690Y-149117041D01*
X155978642Y-149426376D01*
X156524731Y-149535000D01*
X157396317Y-149535000D01*
X157942406Y-149426376D01*
X158405358Y-149117041D01*
X158714693Y-148654089D01*
X158823317Y-148108000D01*
X158714693Y-147561911D01*
X158405358Y-147098959D01*
X158014806Y-146838000D01*
X158405358Y-146577041D01*
X158714693Y-146114089D01*
X158823317Y-145568000D01*
X158714693Y-145021911D01*
X158405358Y-144558959D01*
X158014806Y-144298000D01*
X158405358Y-144037041D01*
X158714693Y-143574089D01*
X158823317Y-143028000D01*
X158714693Y-142481911D01*
X158405358Y-142018959D01*
X158014806Y-141758000D01*
X158405358Y-141497041D01*
X158714693Y-141034089D01*
X158823317Y-140488000D01*
X158714693Y-139941911D01*
X158405358Y-139478959D01*
X158014806Y-139218000D01*
X158405358Y-138957041D01*
X158714693Y-138494089D01*
X158823317Y-137948000D01*
X158714693Y-137401911D01*
X158405358Y-136938959D01*
X158014806Y-136678000D01*
X158405358Y-136417041D01*
X158714693Y-135954089D01*
X158823317Y-135408000D01*
X158714693Y-134861911D01*
X158405358Y-134398959D01*
X158025980Y-134145466D01*
X158027007Y-134145166D01*
X158465024Y-133792896D01*
X158734891Y-133299819D01*
X158752428Y-133217039D01*
X158630439Y-132995000D01*
X157087524Y-132995000D01*
X157087524Y-133015000D01*
X156833524Y-133015000D01*
X156833524Y-132995000D01*
X156813524Y-132995000D01*
X156813524Y-132741000D01*
X156833524Y-132741000D01*
X156833524Y-132721000D01*
X157087524Y-132721000D01*
X157087524Y-132741000D01*
X158630439Y-132741000D01*
X158752428Y-132518961D01*
X158734891Y-132436181D01*
X158465024Y-131943104D01*
X158027007Y-131590834D01*
X158025980Y-131590534D01*
X158228820Y-131455000D01*
X159033706Y-131455000D01*
X162762357Y-135183651D01*
X162717731Y-135408000D01*
X162826355Y-135954089D01*
X163135690Y-136417041D01*
X163526242Y-136678000D01*
X163135690Y-136938959D01*
X162826355Y-137401911D01*
X162717731Y-137948000D01*
X162826355Y-138494089D01*
X163135690Y-138957041D01*
X163526242Y-139218000D01*
X163135690Y-139478959D01*
X162826355Y-139941911D01*
X162717731Y-140488000D01*
X162826355Y-141034089D01*
X163135690Y-141497041D01*
X163526242Y-141758000D01*
X163135690Y-142018959D01*
X162826355Y-142481911D01*
X162717731Y-143028000D01*
X162826355Y-143574089D01*
X163135690Y-144037041D01*
X163526242Y-144298000D01*
X163135690Y-144558959D01*
X162826355Y-145021911D01*
X162717731Y-145568000D01*
X162826355Y-146114089D01*
X163135690Y-146577041D01*
X163526242Y-146838000D01*
X163135690Y-147098959D01*
X162826355Y-147561911D01*
X162717731Y-148108000D01*
X162826355Y-148654089D01*
X163135690Y-149117041D01*
X163598642Y-149426376D01*
X164144731Y-149535000D01*
X165016317Y-149535000D01*
X165562406Y-149426376D01*
X166025358Y-149117041D01*
X166334693Y-148654089D01*
X166410783Y-148271559D01*
X167838592Y-146843750D01*
X168137000Y-146843750D01*
X168137000Y-147584309D01*
X168233673Y-147817698D01*
X168412301Y-147996327D01*
X168645690Y-148093000D01*
X169386250Y-148093000D01*
X169545000Y-147934250D01*
X169545000Y-146685000D01*
X169799000Y-146685000D01*
X169799000Y-147934250D01*
X169957750Y-148093000D01*
X170698310Y-148093000D01*
X170931699Y-147996327D01*
X171110327Y-147817698D01*
X171207000Y-147584309D01*
X171207000Y-146843750D01*
X171048250Y-146685000D01*
X169799000Y-146685000D01*
X169545000Y-146685000D01*
X168295750Y-146685000D01*
X168137000Y-146843750D01*
X167838592Y-146843750D01*
X168144910Y-146537432D01*
X168247959Y-146383209D01*
X168295750Y-146431000D01*
X169545000Y-146431000D01*
X169545000Y-146411000D01*
X169799000Y-146411000D01*
X169799000Y-146431000D01*
X171048250Y-146431000D01*
X171207000Y-146272250D01*
X171207000Y-145531691D01*
X171110327Y-145298302D01*
X170931699Y-145119673D01*
X170789004Y-145060567D01*
X170965773Y-144884106D01*
X171198735Y-144323072D01*
X171198943Y-144084876D01*
X172246910Y-143036909D01*
X172491212Y-142671284D01*
X172577000Y-142240000D01*
X172577000Y-141607290D01*
X172659047Y-141525386D01*
X172876752Y-141001093D01*
X172877248Y-140433397D01*
X172660457Y-139908725D01*
X172259386Y-139506953D01*
X171735093Y-139289248D01*
X171167397Y-139288752D01*
X170642725Y-139505543D01*
X170240953Y-139906614D01*
X170023248Y-140430907D01*
X170022752Y-140998603D01*
X170239543Y-141523275D01*
X170323000Y-141606878D01*
X170323000Y-141773181D01*
X169605241Y-142490941D01*
X169369593Y-142490735D01*
X168808154Y-142722717D01*
X168475001Y-143055289D01*
X168475001Y-142105912D01*
X168694089Y-142062333D01*
X169157041Y-141752998D01*
X169466376Y-141290046D01*
X169575000Y-140743957D01*
X169575000Y-140688043D01*
X169466376Y-140141954D01*
X169157041Y-139679002D01*
X168694089Y-139369667D01*
X168148000Y-139261043D01*
X167601911Y-139369667D01*
X167138959Y-139679002D01*
X166829624Y-140141954D01*
X166755480Y-140514702D01*
X166551092Y-140719090D01*
X166306789Y-141084715D01*
X166221001Y-141515999D01*
X166221001Y-142311759D01*
X166025358Y-142018959D01*
X165634806Y-141758000D01*
X166025358Y-141497041D01*
X166334693Y-141034089D01*
X166443317Y-140488000D01*
X166334693Y-139941911D01*
X166025358Y-139478959D01*
X165634806Y-139218000D01*
X166025358Y-138957041D01*
X166334693Y-138494089D01*
X166443317Y-137948000D01*
X166334693Y-137401911D01*
X166025358Y-136938959D01*
X165634806Y-136678000D01*
X165848820Y-136535000D01*
X169138000Y-136535000D01*
X169569284Y-136449212D01*
X169934909Y-136204909D01*
X171623342Y-134516477D01*
X171996089Y-134442333D01*
X172459041Y-134132998D01*
X172768376Y-133670046D01*
X172877000Y-133123957D01*
X172877000Y-133068043D01*
X172768376Y-132521954D01*
X172577000Y-132235540D01*
X172577000Y-125971998D01*
X172491212Y-125540714D01*
X172246909Y-125175089D01*
X171599912Y-124528092D01*
X171264194Y-124303772D01*
X171358365Y-124041777D01*
X171331178Y-123471546D01*
X171165264Y-123070995D01*
X170919145Y-122996861D01*
X170091005Y-123825000D01*
X170105148Y-123839143D01*
X169925543Y-124018748D01*
X169911400Y-124004605D01*
X169897258Y-124018748D01*
X169717653Y-123839143D01*
X169731795Y-123825000D01*
X169717652Y-123810858D01*
X169897258Y-123631252D01*
X169911400Y-123645395D01*
X170739539Y-122817255D01*
X170665405Y-122571136D01*
X170128177Y-122378035D01*
X169656000Y-122400547D01*
X169656000Y-121156433D01*
X169824753Y-121047843D01*
X169967917Y-120838317D01*
X170018283Y-120589600D01*
X170018283Y-119389600D01*
X169974563Y-119157248D01*
X169837243Y-118943847D01*
X169686497Y-118840846D01*
X169941536Y-118459153D01*
X170034936Y-117989600D01*
X169941536Y-117520047D01*
X169675556Y-117121980D01*
X169481410Y-116992256D01*
X169710933Y-116818725D01*
X169957286Y-116398976D01*
X169972462Y-116307209D01*
X169847731Y-116116600D01*
X168656000Y-116116600D01*
X168656000Y-116136600D01*
X168402000Y-116136600D01*
X168402000Y-116116600D01*
X167210269Y-116116600D01*
X167085538Y-116307209D01*
X167100714Y-116398976D01*
X167347067Y-116818725D01*
X167405099Y-116862600D01*
X166758924Y-116862600D01*
X166327640Y-116948388D01*
X166270836Y-116986343D01*
X166025358Y-116618959D01*
X165634806Y-116358000D01*
X166025358Y-116097041D01*
X166309367Y-115671991D01*
X167085538Y-115671991D01*
X167210269Y-115862600D01*
X168402000Y-115862600D01*
X168402000Y-114907053D01*
X168656000Y-114907053D01*
X168656000Y-115862600D01*
X169847731Y-115862600D01*
X169972462Y-115671991D01*
X169957286Y-115580224D01*
X169710933Y-115160475D01*
X169322701Y-114866953D01*
X168851696Y-114744344D01*
X168656000Y-114907053D01*
X168402000Y-114907053D01*
X168206304Y-114744344D01*
X167735299Y-114866953D01*
X167347067Y-115160475D01*
X167100714Y-115580224D01*
X167085538Y-115671991D01*
X166309367Y-115671991D01*
X166334693Y-115634089D01*
X166443317Y-115088000D01*
X166334693Y-114541911D01*
X166025358Y-114078959D01*
X165562406Y-113769624D01*
X165016317Y-113661000D01*
X164144731Y-113661000D01*
X163598642Y-113769624D01*
X163135690Y-114078959D01*
X162826355Y-114541911D01*
X162717731Y-115088000D01*
X162826355Y-115634089D01*
X163135690Y-116097041D01*
X163526242Y-116358000D01*
X163135690Y-116618959D01*
X162826355Y-117081911D01*
X162717731Y-117628000D01*
X162826355Y-118174089D01*
X163135690Y-118637041D01*
X163526242Y-118898000D01*
X163135690Y-119158959D01*
X162826355Y-119621911D01*
X162717731Y-120168000D01*
X162826355Y-120714089D01*
X163135690Y-121177041D01*
X163526242Y-121438000D01*
X163135690Y-121698959D01*
X162826355Y-122161911D01*
X162717731Y-122708000D01*
X162826355Y-123254089D01*
X163135690Y-123717041D01*
X163526242Y-123978000D01*
X163135690Y-124238959D01*
X162826355Y-124701911D01*
X162717731Y-125248000D01*
X162826355Y-125794089D01*
X163135690Y-126257041D01*
X163526242Y-126518000D01*
X163135690Y-126778959D01*
X162826355Y-127241911D01*
X162717731Y-127788000D01*
X162826355Y-128334089D01*
X163135690Y-128797041D01*
X163515068Y-129050534D01*
X163514041Y-129050834D01*
X163076024Y-129403104D01*
X162806157Y-129896181D01*
X162788620Y-129978961D01*
X162910609Y-130201000D01*
X164453524Y-130201000D01*
X164453524Y-130181000D01*
X164707524Y-130181000D01*
X164707524Y-130201000D01*
X166250439Y-130201000D01*
X166372428Y-129978961D01*
X166354891Y-129896181D01*
X166085024Y-129403104D01*
X165647007Y-129050834D01*
X165645980Y-129050534D01*
X166025358Y-128797041D01*
X166334693Y-128334089D01*
X166443317Y-127788000D01*
X166334693Y-127241911D01*
X166025358Y-126778959D01*
X165634806Y-126518000D01*
X166025358Y-126257041D01*
X166334693Y-125794089D01*
X166443317Y-125248000D01*
X166350678Y-124782271D01*
X166602014Y-125034047D01*
X167126307Y-125251752D01*
X167244436Y-125251855D01*
X167414489Y-125421908D01*
X167414492Y-125421910D01*
X168114491Y-126121910D01*
X168166439Y-126156620D01*
X168137000Y-126227691D01*
X168137000Y-126968250D01*
X168295750Y-127127000D01*
X169545000Y-127127000D01*
X169545000Y-127107000D01*
X169799000Y-127107000D01*
X169799000Y-127127000D01*
X169819000Y-127127000D01*
X169819000Y-127381000D01*
X169799000Y-127381000D01*
X169799000Y-127401000D01*
X169545000Y-127401000D01*
X169545000Y-127381000D01*
X168295750Y-127381000D01*
X168137000Y-127539750D01*
X168137000Y-128280309D01*
X168233673Y-128513698D01*
X168412301Y-128692327D01*
X168554996Y-128751433D01*
X168378227Y-128927894D01*
X168145265Y-129488928D01*
X168144735Y-130096407D01*
X168376717Y-130657846D01*
X168545000Y-130826423D01*
X168545000Y-131105181D01*
X167981328Y-131668853D01*
X167865397Y-131668752D01*
X167340725Y-131885543D01*
X166938953Y-132286614D01*
X166721248Y-132810907D01*
X166720752Y-133378603D01*
X166937543Y-133903275D01*
X167314609Y-134281000D01*
X165848820Y-134281000D01*
X165634806Y-134138000D01*
X166025358Y-133877041D01*
X166334693Y-133414089D01*
X166443317Y-132868000D01*
X166334693Y-132321911D01*
X166025358Y-131858959D01*
X165645980Y-131605466D01*
X165647007Y-131605166D01*
X166085024Y-131252896D01*
X166354891Y-130759819D01*
X166372428Y-130677039D01*
X166250439Y-130455000D01*
X164707524Y-130455000D01*
X164707524Y-130475000D01*
X164453524Y-130475000D01*
X164453524Y-130455000D01*
X162910609Y-130455000D01*
X162788620Y-130677039D01*
X162806157Y-130759819D01*
X163076024Y-131252896D01*
X163514041Y-131605166D01*
X163515068Y-131605466D01*
X163135690Y-131858959D01*
X162931257Y-132164915D01*
X160297433Y-129531091D01*
X159931808Y-129286788D01*
X159500524Y-129201000D01*
X158228820Y-129201000D01*
X158014806Y-129058000D01*
X158405358Y-128797041D01*
X158714693Y-128334089D01*
X158823317Y-127788000D01*
X158714693Y-127241911D01*
X158405358Y-126778959D01*
X158014806Y-126518000D01*
X158405358Y-126257041D01*
X158714693Y-125794089D01*
X158823317Y-125248000D01*
X158714693Y-124701911D01*
X158405358Y-124238959D01*
X158014806Y-123978000D01*
X158405358Y-123717041D01*
X158714693Y-123254089D01*
X158823317Y-122708000D01*
X158714693Y-122161911D01*
X158405358Y-121698959D01*
X158014806Y-121438000D01*
X158405358Y-121177041D01*
X158714693Y-120714089D01*
X158823317Y-120168000D01*
X158714693Y-119621911D01*
X158405358Y-119158959D01*
X158014806Y-118898000D01*
X158405358Y-118637041D01*
X158714693Y-118174089D01*
X158823317Y-117628000D01*
X158714693Y-117081911D01*
X158405358Y-116618959D01*
X158244506Y-116511481D01*
X158392876Y-116483563D01*
X158606277Y-116346243D01*
X158749441Y-116136717D01*
X158799807Y-115888000D01*
X158799807Y-114288000D01*
X158756087Y-114055648D01*
X158618767Y-113842247D01*
X158409241Y-113699083D01*
X158160524Y-113648717D01*
X158099000Y-113648717D01*
X158099000Y-113275745D01*
X158643861Y-113275745D01*
X158717995Y-113521864D01*
X159255223Y-113714965D01*
X159825454Y-113687778D01*
X160226005Y-113521864D01*
X160300139Y-113275745D01*
X159472000Y-112447605D01*
X158643861Y-113275745D01*
X158099000Y-113275745D01*
X158099000Y-113159290D01*
X158181047Y-113077386D01*
X158211098Y-113005014D01*
X158218136Y-113022005D01*
X158464255Y-113096139D01*
X159292395Y-112268000D01*
X159651605Y-112268000D01*
X160479745Y-113096139D01*
X160725864Y-113022005D01*
X160918965Y-112484777D01*
X160891778Y-111914546D01*
X160725864Y-111513995D01*
X160479745Y-111439861D01*
X159651605Y-112268000D01*
X159292395Y-112268000D01*
X158464255Y-111439861D01*
X158218136Y-111513995D01*
X158211777Y-111531685D01*
X158182457Y-111460725D01*
X157982337Y-111260255D01*
X158643861Y-111260255D01*
X159472000Y-112088395D01*
X160300139Y-111260255D01*
X160226005Y-111014136D01*
X159688777Y-110821035D01*
X159118546Y-110848222D01*
X158717995Y-111014136D01*
X158643861Y-111260255D01*
X157982337Y-111260255D01*
X157781386Y-111058953D01*
X157257093Y-110841248D01*
X156689397Y-110840752D01*
X156164725Y-111057543D01*
X155762953Y-111458614D01*
X155545248Y-111982907D01*
X155544752Y-112550603D01*
X155761543Y-113075275D01*
X155845000Y-113158878D01*
X155845000Y-113648717D01*
X155760524Y-113648717D01*
X155588954Y-113681000D01*
X154544344Y-113681000D01*
X154216089Y-113461667D01*
X153670000Y-113353043D01*
X153123911Y-113461667D01*
X152795656Y-113681000D01*
X150368000Y-113681000D01*
X149936716Y-113766788D01*
X149672909Y-113943058D01*
X149283789Y-113942718D01*
X148685582Y-114189892D01*
X148227501Y-114647175D01*
X147979283Y-115244950D01*
X147978718Y-115892211D01*
X148225892Y-116490418D01*
X148683175Y-116948499D01*
X149280950Y-117196717D01*
X149928211Y-117197282D01*
X150526418Y-116950108D01*
X150984499Y-116492825D01*
X151216128Y-115935000D01*
X152795656Y-115935000D01*
X153123911Y-116154333D01*
X153670000Y-116262957D01*
X154216089Y-116154333D01*
X154544344Y-115935000D01*
X155130085Y-115935000D01*
X155164961Y-116120352D01*
X155302281Y-116333753D01*
X155511807Y-116476917D01*
X155630733Y-116501000D01*
X151531998Y-116501000D01*
X151100714Y-116586788D01*
X150735089Y-116831091D01*
X147109090Y-120457090D01*
X146864787Y-120822715D01*
X146778999Y-121253999D01*
X146778999Y-121375183D01*
X146652227Y-121501955D01*
X146525387Y-121195736D01*
X146258532Y-121097073D01*
X145285605Y-122070000D01*
X145299748Y-122084143D01*
X145120143Y-122263748D01*
X145106000Y-122249605D01*
X144133073Y-123222532D01*
X144231736Y-123489387D01*
X144547489Y-123606693D01*
X143195090Y-124959092D01*
X142950787Y-125324717D01*
X142864999Y-125756001D01*
X139640000Y-125756001D01*
X139640000Y-121805461D01*
X143460092Y-121805461D01*
X143484144Y-122455460D01*
X143686613Y-122944264D01*
X143953468Y-123042927D01*
X144926395Y-122070000D01*
X143953468Y-121097073D01*
X143686613Y-121195736D01*
X143460092Y-121805461D01*
X139640000Y-121805461D01*
X139640000Y-120917468D01*
X144133073Y-120917468D01*
X145106000Y-121890395D01*
X146078927Y-120917468D01*
X145980264Y-120650613D01*
X145370539Y-120424092D01*
X144720540Y-120448144D01*
X144231736Y-120650613D01*
X144133073Y-120917468D01*
X139640000Y-120917468D01*
X139640000Y-116722532D01*
X144133073Y-116722532D01*
X144231736Y-116989387D01*
X144841461Y-117215908D01*
X145491460Y-117191856D01*
X145980264Y-116989387D01*
X146078927Y-116722532D01*
X145106000Y-115749605D01*
X144133073Y-116722532D01*
X139640000Y-116722532D01*
X139640000Y-115305461D01*
X143460092Y-115305461D01*
X143484144Y-115955460D01*
X143686613Y-116444264D01*
X143953468Y-116542927D01*
X144926395Y-115570000D01*
X145285605Y-115570000D01*
X146258532Y-116542927D01*
X146525387Y-116444264D01*
X146751908Y-115834539D01*
X146727856Y-115184540D01*
X146525387Y-114695736D01*
X146258532Y-114597073D01*
X145285605Y-115570000D01*
X144926395Y-115570000D01*
X143953468Y-114597073D01*
X143686613Y-114695736D01*
X143460092Y-115305461D01*
X139640000Y-115305461D01*
X139640000Y-113428026D01*
X140223831Y-114012876D01*
X141200772Y-114418538D01*
X142258587Y-114419461D01*
X142263410Y-114417468D01*
X144133073Y-114417468D01*
X145106000Y-115390395D01*
X146078927Y-114417468D01*
X145980264Y-114150613D01*
X145370539Y-113924092D01*
X144720540Y-113948144D01*
X144231736Y-114150613D01*
X144133073Y-114417468D01*
X142263410Y-114417468D01*
X143236235Y-114015505D01*
X143984876Y-113268169D01*
X144390538Y-112291228D01*
X144391461Y-111233413D01*
X143987505Y-110255765D01*
X143400765Y-109668000D01*
X172575974Y-109668000D01*
X171991124Y-110251831D01*
M02*
