M48
;DRILL file {KiCad 4.0.1-stable} date 2018/11/19 16:45:03
;FORMAT={-:-/ absolute / metric / decimal}
FMAT,2
METRIC,TZ
T1C0.750
T2C0.800
T3C0.900
T4C1.000
T5C1.100
T6C3.200
%
G90
G05
M71
T1
X145.542Y-129.032
X145.542Y-131.032
X145.542Y-133.032
X145.542Y-135.032
X168.529Y-115.99
X168.529Y-117.99
X168.529Y-119.99
T2
X147.574Y-141.478
X147.574Y-146.358
X148.59Y-133.35
X148.59Y-135.85
X151.384Y-138.978
X151.384Y-141.478
X151.384Y-145.328
X151.384Y-147.828
X153.67Y-114.808
X153.67Y-122.428
X154.178Y-131.826
X154.178Y-134.326
X156.961Y-115.088
X156.961Y-117.628
X156.961Y-120.168
X156.961Y-122.708
X156.961Y-125.248
X156.961Y-127.788
X156.961Y-130.328
X156.961Y-132.868
X156.961Y-135.408
X156.961Y-137.948
X156.961Y-140.488
X156.961Y-143.028
X156.961Y-145.568
X156.961Y-148.108
X156.972Y-112.268
X159.472Y-112.268
X164.581Y-115.088
X164.581Y-117.628
X164.581Y-120.168
X164.581Y-122.708
X164.581Y-125.248
X164.581Y-127.788
X164.581Y-130.328
X164.581Y-132.868
X164.581Y-135.408
X164.581Y-137.948
X164.581Y-140.488
X164.581Y-143.028
X164.581Y-145.568
X164.581Y-148.108
X167.411Y-123.825
X168.148Y-133.096
X168.148Y-140.716
X169.911Y-123.825
X171.45Y-133.096
X171.45Y-140.716
T3
X169.672Y-127.254
X169.672Y-129.794
X169.672Y-144.018
X169.672Y-146.558
T4
X151.13Y-125.73
X151.13Y-128.27
X151.13Y-130.81
X151.13Y-133.35
X151.13Y-135.89
T5
X145.106Y-115.57
X145.106Y-122.07
X149.606Y-115.57
X149.606Y-122.07
T6
X141.732Y-111.76
X141.732Y-151.384
X174.244Y-111.76
X174.244Y-151.384
T0
M30
