G04 #@! TF.FileFunction,Copper,L2,Bot,Signal*
%FSLAX46Y46*%
G04 Gerber Fmt 4.6, Leading zero omitted, Abs format (unit mm)*
G04 Created by KiCad (PCBNEW 4.0.1-stable) date 2018/10/11 18:19:22*
%MOMM*%
G01*
G04 APERTURE LIST*
%ADD10C,0.100000*%
%ADD11C,0.150000*%
%ADD12C,4.064000*%
%ADD13C,1.600000*%
%ADD14R,1.800000X1.800000*%
%ADD15C,1.800000*%
%ADD16R,2.400000X1.600000*%
%ADD17O,2.400000X1.600000*%
%ADD18R,1.700000X1.200000*%
%ADD19O,1.700000X1.200000*%
%ADD20R,1.700000X1.700000*%
%ADD21O,1.700000X1.700000*%
%ADD22O,1.600000X1.600000*%
%ADD23C,2.000000*%
%ADD24C,1.500000*%
%ADD25C,1.000000*%
%ADD26C,0.254000*%
G04 APERTURE END LIST*
D10*
D11*
X170180000Y-107950000D02*
X171450000Y-107950000D01*
X170180000Y-166370000D02*
X171450000Y-166370000D01*
X142240000Y-163830000D02*
X142240000Y-110490000D01*
X142240000Y-163830000D02*
G75*
G03X144780000Y-166370000I2540000J0D01*
G01*
X144780000Y-166370000D02*
X170180000Y-166370000D01*
X173990000Y-110490000D02*
X173990000Y-163830000D01*
X144780000Y-107950000D02*
X170180000Y-107950000D01*
X171450000Y-166370000D02*
G75*
G03X173990000Y-163830000I0J2540000D01*
G01*
X144780000Y-107950000D02*
G75*
G03X142240000Y-110490000I0J-2540000D01*
G01*
X173990000Y-110490000D02*
G75*
G03X171450000Y-107950000I-2540000J0D01*
G01*
D12*
X144780000Y-163830000D03*
X171450000Y-163830000D03*
X171450000Y-110490000D03*
D13*
X168402000Y-123952000D03*
X168402000Y-126452000D03*
X151384000Y-141478000D03*
X151384000Y-138978000D03*
X151384000Y-147828000D03*
X151384000Y-145328000D03*
X171196000Y-131318000D03*
X171196000Y-128818000D03*
X171196000Y-123952000D03*
X171196000Y-126452000D03*
X168402000Y-131318000D03*
X168402000Y-128818000D03*
X153670000Y-112268000D03*
X151170000Y-112268000D03*
D14*
X155194000Y-158496000D03*
D15*
X155194000Y-155956000D03*
D14*
X169418000Y-158496000D03*
D15*
X169418000Y-155956000D03*
D14*
X162306000Y-158496000D03*
D15*
X162306000Y-155956000D03*
D14*
X148082000Y-158496000D03*
D15*
X148082000Y-155956000D03*
D16*
X156960524Y-115088000D03*
D17*
X164580524Y-148108000D03*
X156960524Y-117628000D03*
X164580524Y-145568000D03*
X156960524Y-120168000D03*
X164580524Y-143028000D03*
X156960524Y-122708000D03*
X164580524Y-140488000D03*
X156960524Y-125248000D03*
X164580524Y-137948000D03*
X156960524Y-127788000D03*
X164580524Y-135408000D03*
X156960524Y-130328000D03*
X164580524Y-132868000D03*
X156960524Y-132868000D03*
X164580524Y-130328000D03*
X156960524Y-135408000D03*
X164580524Y-127788000D03*
X156960524Y-137948000D03*
X164580524Y-125248000D03*
X156960524Y-140488000D03*
X164580524Y-122708000D03*
X156960524Y-143028000D03*
X164580524Y-120168000D03*
X156960524Y-145568000D03*
X164580524Y-117628000D03*
X156960524Y-148108000D03*
X164580524Y-115088000D03*
D18*
X146050000Y-129032000D03*
D19*
X146050000Y-131032000D03*
X146050000Y-133032000D03*
X146050000Y-135032000D03*
D20*
X151130000Y-125730000D03*
D21*
X151130000Y-128270000D03*
X151130000Y-130810000D03*
X151130000Y-133350000D03*
X151130000Y-135890000D03*
D18*
X168656000Y-120142000D03*
D19*
X168656000Y-118142000D03*
X168656000Y-116142000D03*
D13*
X156972000Y-151892000D03*
D22*
X164592000Y-151892000D03*
D13*
X153670000Y-122428000D03*
D22*
X153670000Y-114808000D03*
D13*
X171196000Y-151638000D03*
D22*
X171196000Y-144018000D03*
D13*
X167894000Y-151638000D03*
D22*
X167894000Y-144018000D03*
D13*
X146812000Y-151892000D03*
D22*
X154432000Y-151892000D03*
D23*
X145106000Y-115570000D03*
X149606000Y-115570000D03*
X145106000Y-122070000D03*
X149606000Y-122070000D03*
D24*
X146812000Y-141478000D03*
X146812000Y-146358000D03*
D12*
X144780000Y-110490000D03*
D25*
X153670000Y-122428000D02*
X154469999Y-123227999D01*
X154469999Y-123227999D02*
X154469999Y-128237475D01*
X154469999Y-128237475D02*
X156560524Y-130328000D01*
X156560524Y-130328000D02*
X156960524Y-130328000D01*
X156960524Y-130328000D02*
X157360524Y-130328000D01*
X154432000Y-151892000D02*
X155932001Y-150391999D01*
X155932001Y-150391999D02*
X157197859Y-150391999D01*
X157197859Y-150391999D02*
X162680514Y-144909344D01*
X162680514Y-144909344D02*
X162680514Y-137293486D01*
X162680514Y-137293486D02*
X164566000Y-135408000D01*
X164566000Y-135408000D02*
X164580524Y-135408000D01*
X168656000Y-120142000D02*
X168656000Y-123698000D01*
X168656000Y-123698000D02*
X168402000Y-123952000D01*
X164580524Y-135408000D02*
X168402000Y-131586524D01*
X168402000Y-131586524D02*
X168402000Y-131318000D01*
X168402000Y-123952000D02*
X166480534Y-125873466D01*
X166480534Y-125873466D02*
X166480534Y-129396534D01*
X166480534Y-129396534D02*
X167602001Y-130518001D01*
X167602001Y-130518001D02*
X168402000Y-131318000D01*
X156960524Y-130328000D02*
X159500524Y-130328000D01*
X159500524Y-130328000D02*
X164580524Y-135408000D01*
X156960524Y-130328000D02*
X154152000Y-130328000D01*
X154152000Y-130328000D02*
X151130000Y-133350000D01*
X146050000Y-133032000D02*
X150812000Y-133032000D01*
X150812000Y-133032000D02*
X151130000Y-133350000D01*
X145800000Y-133032000D02*
X146050000Y-133032000D01*
X156960524Y-130328000D02*
X156960524Y-130309334D01*
X164180524Y-135408000D02*
X164580524Y-135408000D01*
X168906000Y-120142000D02*
X168656000Y-120142000D01*
X168402000Y-123952000D02*
X171196000Y-123952000D01*
X168402000Y-131318000D02*
X171196000Y-131318000D01*
X151384000Y-141478000D02*
X151384000Y-141198002D01*
X151384000Y-141198002D02*
X155060514Y-137521488D01*
X155060514Y-137521488D02*
X155060514Y-137308010D01*
X155060514Y-137308010D02*
X156960524Y-135408000D01*
X156960524Y-135408000D02*
X156960524Y-135426666D01*
X156560524Y-135408000D02*
X156960524Y-135408000D01*
X146812000Y-141478000D02*
X151384000Y-141478000D01*
X151384000Y-147828000D02*
X152884001Y-146327999D01*
X152884001Y-146327999D02*
X152884001Y-141624523D01*
X152884001Y-141624523D02*
X156560524Y-137948000D01*
X156560524Y-137948000D02*
X156960524Y-137948000D01*
X156960524Y-137948000D02*
X156960524Y-137966666D01*
X146812000Y-146358000D02*
X149914000Y-146358000D01*
X149914000Y-146358000D02*
X151384000Y-147828000D01*
X156960524Y-137948000D02*
X157360524Y-137948000D01*
X149606000Y-122070000D02*
X149606000Y-124206000D01*
X149606000Y-124206000D02*
X151130000Y-125730000D01*
X153670000Y-114808000D02*
X150368000Y-114808000D01*
X150368000Y-114808000D02*
X149606000Y-115570000D01*
X153670000Y-112268000D02*
X153670000Y-114808000D01*
X153670000Y-114808000D02*
X156680524Y-114808000D01*
X156680524Y-114808000D02*
X156960524Y-115088000D01*
X156934524Y-115062000D02*
X156960524Y-115088000D01*
X155194000Y-155956000D02*
X155194000Y-153670000D01*
X155194000Y-153670000D02*
X156972000Y-151892000D01*
X156960524Y-117628000D02*
X151531998Y-117628000D01*
X151531998Y-117628000D02*
X146806001Y-122353997D01*
X144499999Y-127871999D02*
X144499999Y-130192001D01*
X146806001Y-122353997D02*
X146806001Y-125565997D01*
X146806001Y-125565997D02*
X144499999Y-127871999D01*
X145339998Y-131032000D02*
X146050000Y-131032000D01*
X144499999Y-130192001D02*
X145339998Y-131032000D01*
X156960524Y-117628000D02*
X156560524Y-117628000D01*
X146050000Y-131032000D02*
X150908000Y-131032000D01*
X150908000Y-131032000D02*
X151130000Y-130810000D01*
X156960524Y-117628000D02*
X156960524Y-117646666D01*
X156960524Y-117628000D02*
X157680526Y-117628000D01*
X156960524Y-120168000D02*
X153709998Y-120168000D01*
X153709998Y-120168000D02*
X152169999Y-121707999D01*
X152169999Y-121707999D02*
X152169999Y-123809997D01*
X152169999Y-123809997D02*
X152680001Y-124319999D01*
X152680001Y-124319999D02*
X152680001Y-127922080D01*
X152680001Y-127922080D02*
X152332081Y-128270000D01*
X152332081Y-128270000D02*
X151130000Y-128270000D01*
X157360524Y-120168000D02*
X156960524Y-120168000D01*
X156960524Y-120168000D02*
X156960524Y-120186666D01*
X156960524Y-120168000D02*
X156560524Y-120168000D01*
X146050000Y-129032000D02*
X150368000Y-129032000D01*
X150368000Y-129032000D02*
X151130000Y-128270000D01*
X145800000Y-129032000D02*
X146050000Y-129032000D01*
X164580524Y-145568000D02*
X166344000Y-145568000D01*
X166344000Y-145568000D02*
X167894000Y-144018000D01*
X164580524Y-143028000D02*
X166663998Y-143028000D01*
X166663998Y-143028000D02*
X167173999Y-142517999D01*
X167173999Y-142517999D02*
X169695999Y-142517999D01*
X169695999Y-142517999D02*
X170396001Y-143218001D01*
X170396001Y-143218001D02*
X171196000Y-144018000D01*
X169418000Y-155956000D02*
X169418000Y-153416000D01*
X169418000Y-153416000D02*
X171196000Y-151638000D01*
X162306000Y-155956000D02*
X163576000Y-155956000D01*
X163576000Y-155956000D02*
X167894000Y-151638000D01*
X164580524Y-148108000D02*
X164580524Y-151880524D01*
X164580524Y-151880524D02*
X164592000Y-151892000D01*
X146812000Y-151892000D02*
X146812000Y-154686000D01*
X146812000Y-154686000D02*
X148082000Y-155956000D01*
X164580524Y-120168000D02*
X166606524Y-118142000D01*
X166606524Y-118142000D02*
X168656000Y-118142000D01*
D26*
G36*
X169197124Y-108981831D02*
X168791462Y-109958772D01*
X168790539Y-111016587D01*
X169194495Y-111994235D01*
X169941831Y-112742876D01*
X170918772Y-113148538D01*
X171976587Y-113149461D01*
X172954235Y-112745505D01*
X173288000Y-112412322D01*
X173288000Y-161907531D01*
X172958169Y-161577124D01*
X171981228Y-161171462D01*
X170923413Y-161170539D01*
X169945765Y-161574495D01*
X169197124Y-162321831D01*
X168791462Y-163298772D01*
X168790539Y-164356587D01*
X169194495Y-165334235D01*
X169527678Y-165668000D01*
X146702469Y-165668000D01*
X147032876Y-165338169D01*
X147438538Y-164361228D01*
X147439461Y-163303413D01*
X147035505Y-162325765D01*
X146288169Y-161577124D01*
X145311228Y-161171462D01*
X144253413Y-161170539D01*
X143275765Y-161574495D01*
X142942000Y-161907678D01*
X142942000Y-158781750D01*
X146547000Y-158781750D01*
X146547000Y-159522309D01*
X146643673Y-159755698D01*
X146822301Y-159934327D01*
X147055690Y-160031000D01*
X147796250Y-160031000D01*
X147955000Y-159872250D01*
X147955000Y-158623000D01*
X148209000Y-158623000D01*
X148209000Y-159872250D01*
X148367750Y-160031000D01*
X149108310Y-160031000D01*
X149341699Y-159934327D01*
X149520327Y-159755698D01*
X149617000Y-159522309D01*
X149617000Y-158781750D01*
X153659000Y-158781750D01*
X153659000Y-159522309D01*
X153755673Y-159755698D01*
X153934301Y-159934327D01*
X154167690Y-160031000D01*
X154908250Y-160031000D01*
X155067000Y-159872250D01*
X155067000Y-158623000D01*
X155321000Y-158623000D01*
X155321000Y-159872250D01*
X155479750Y-160031000D01*
X156220310Y-160031000D01*
X156453699Y-159934327D01*
X156632327Y-159755698D01*
X156729000Y-159522309D01*
X156729000Y-158781750D01*
X160771000Y-158781750D01*
X160771000Y-159522309D01*
X160867673Y-159755698D01*
X161046301Y-159934327D01*
X161279690Y-160031000D01*
X162020250Y-160031000D01*
X162179000Y-159872250D01*
X162179000Y-158623000D01*
X162433000Y-158623000D01*
X162433000Y-159872250D01*
X162591750Y-160031000D01*
X163332310Y-160031000D01*
X163565699Y-159934327D01*
X163744327Y-159755698D01*
X163841000Y-159522309D01*
X163841000Y-158781750D01*
X167883000Y-158781750D01*
X167883000Y-159522309D01*
X167979673Y-159755698D01*
X168158301Y-159934327D01*
X168391690Y-160031000D01*
X169132250Y-160031000D01*
X169291000Y-159872250D01*
X169291000Y-158623000D01*
X169545000Y-158623000D01*
X169545000Y-159872250D01*
X169703750Y-160031000D01*
X170444310Y-160031000D01*
X170677699Y-159934327D01*
X170856327Y-159755698D01*
X170953000Y-159522309D01*
X170953000Y-158781750D01*
X170794250Y-158623000D01*
X169545000Y-158623000D01*
X169291000Y-158623000D01*
X168041750Y-158623000D01*
X167883000Y-158781750D01*
X163841000Y-158781750D01*
X163682250Y-158623000D01*
X162433000Y-158623000D01*
X162179000Y-158623000D01*
X160929750Y-158623000D01*
X160771000Y-158781750D01*
X156729000Y-158781750D01*
X156570250Y-158623000D01*
X155321000Y-158623000D01*
X155067000Y-158623000D01*
X153817750Y-158623000D01*
X153659000Y-158781750D01*
X149617000Y-158781750D01*
X149458250Y-158623000D01*
X148209000Y-158623000D01*
X147955000Y-158623000D01*
X146705750Y-158623000D01*
X146547000Y-158781750D01*
X142942000Y-158781750D01*
X142942000Y-152174603D01*
X145384752Y-152174603D01*
X145601543Y-152699275D01*
X145685000Y-152782878D01*
X145685000Y-154686000D01*
X145770788Y-155117284D01*
X146015091Y-155482909D01*
X146554941Y-156022759D01*
X146554735Y-156258407D01*
X146786717Y-156819846D01*
X146965088Y-156998529D01*
X146822301Y-157057673D01*
X146643673Y-157236302D01*
X146547000Y-157469691D01*
X146547000Y-158210250D01*
X146705750Y-158369000D01*
X147955000Y-158369000D01*
X147955000Y-158349000D01*
X148209000Y-158349000D01*
X148209000Y-158369000D01*
X149458250Y-158369000D01*
X149617000Y-158210250D01*
X149617000Y-157469691D01*
X149520327Y-157236302D01*
X149341699Y-157057673D01*
X149199004Y-156998567D01*
X149375773Y-156822106D01*
X149608735Y-156261072D01*
X149609265Y-155653593D01*
X149377283Y-155092154D01*
X148948106Y-154662227D01*
X148387072Y-154429265D01*
X148148876Y-154429057D01*
X147939000Y-154219182D01*
X147939000Y-152783290D01*
X148021047Y-152701386D01*
X148238752Y-152177093D01*
X148239248Y-151609397D01*
X148022457Y-151084725D01*
X147621386Y-150682953D01*
X147097093Y-150465248D01*
X146529397Y-150464752D01*
X146004725Y-150681543D01*
X145602953Y-151082614D01*
X145385248Y-151606907D01*
X145384752Y-152174603D01*
X142942000Y-152174603D01*
X142942000Y-138761223D01*
X149937035Y-138761223D01*
X149964222Y-139331454D01*
X150130136Y-139732005D01*
X150376255Y-139806139D01*
X151204395Y-138978000D01*
X150376255Y-138149861D01*
X150130136Y-138223995D01*
X149937035Y-138761223D01*
X142942000Y-138761223D01*
X142942000Y-137970255D01*
X150555861Y-137970255D01*
X151384000Y-138798395D01*
X152212139Y-137970255D01*
X152138005Y-137724136D01*
X151600777Y-137531035D01*
X151030546Y-137558222D01*
X150629995Y-137724136D01*
X150555861Y-137970255D01*
X142942000Y-137970255D01*
X142942000Y-135349609D01*
X144606538Y-135349609D01*
X144621714Y-135441376D01*
X144868067Y-135861125D01*
X145256299Y-136154647D01*
X145727304Y-136277256D01*
X145923000Y-136114547D01*
X145923000Y-135159000D01*
X146177000Y-135159000D01*
X146177000Y-136114547D01*
X146372696Y-136277256D01*
X146489347Y-136246890D01*
X149688524Y-136246890D01*
X149858355Y-136656924D01*
X150248642Y-137085183D01*
X150773108Y-137331486D01*
X151003000Y-137210819D01*
X151003000Y-136017000D01*
X151257000Y-136017000D01*
X151257000Y-137210819D01*
X151486892Y-137331486D01*
X152011358Y-137085183D01*
X152401645Y-136656924D01*
X152571476Y-136246890D01*
X152450155Y-136017000D01*
X151257000Y-136017000D01*
X151003000Y-136017000D01*
X149809845Y-136017000D01*
X149688524Y-136246890D01*
X146489347Y-136246890D01*
X146843701Y-136154647D01*
X147231933Y-135861125D01*
X147478286Y-135441376D01*
X147493462Y-135349609D01*
X147368731Y-135159000D01*
X146177000Y-135159000D01*
X145923000Y-135159000D01*
X144731269Y-135159000D01*
X144606538Y-135349609D01*
X142942000Y-135349609D01*
X142942000Y-127871999D01*
X143372999Y-127871999D01*
X143372999Y-130192001D01*
X143458787Y-130623285D01*
X143703090Y-130988910D01*
X144543089Y-131828909D01*
X144908714Y-132073212D01*
X145009795Y-132093318D01*
X144903444Y-132164380D01*
X144637464Y-132562447D01*
X144544064Y-133032000D01*
X144637464Y-133501553D01*
X144903444Y-133899620D01*
X145097590Y-134029344D01*
X144868067Y-134202875D01*
X144621714Y-134622624D01*
X144606538Y-134714391D01*
X144731269Y-134905000D01*
X145923000Y-134905000D01*
X145923000Y-134885000D01*
X146177000Y-134885000D01*
X146177000Y-134905000D01*
X147368731Y-134905000D01*
X147493462Y-134714391D01*
X147478286Y-134622624D01*
X147231933Y-134202875D01*
X147173901Y-134159000D01*
X149899380Y-134159000D01*
X150056667Y-134394397D01*
X150399939Y-134623764D01*
X150248642Y-134694817D01*
X149858355Y-135123076D01*
X149688524Y-135533110D01*
X149809845Y-135763000D01*
X151003000Y-135763000D01*
X151003000Y-135743000D01*
X151257000Y-135743000D01*
X151257000Y-135763000D01*
X152450155Y-135763000D01*
X152571476Y-135533110D01*
X152401645Y-135123076D01*
X152011358Y-134694817D01*
X151860061Y-134623764D01*
X152203333Y-134394397D01*
X152523506Y-133915223D01*
X152614115Y-133459704D01*
X154618819Y-131455000D01*
X155692228Y-131455000D01*
X155895068Y-131590534D01*
X155894041Y-131590834D01*
X155456024Y-131943104D01*
X155186157Y-132436181D01*
X155168620Y-132518961D01*
X155290609Y-132741000D01*
X156833524Y-132741000D01*
X156833524Y-132721000D01*
X157087524Y-132721000D01*
X157087524Y-132741000D01*
X158630439Y-132741000D01*
X158752428Y-132518961D01*
X158734891Y-132436181D01*
X158465024Y-131943104D01*
X158027007Y-131590834D01*
X158025980Y-131590534D01*
X158228820Y-131455000D01*
X159033706Y-131455000D01*
X162762357Y-135183651D01*
X162717731Y-135408000D01*
X162759947Y-135620235D01*
X161883605Y-136496577D01*
X161639302Y-136862202D01*
X161553514Y-137293486D01*
X161553514Y-144442526D01*
X158602315Y-147393725D01*
X158405358Y-147098959D01*
X158014806Y-146838000D01*
X158405358Y-146577041D01*
X158714693Y-146114089D01*
X158823317Y-145568000D01*
X158714693Y-145021911D01*
X158405358Y-144558959D01*
X158014806Y-144298000D01*
X158405358Y-144037041D01*
X158714693Y-143574089D01*
X158823317Y-143028000D01*
X158714693Y-142481911D01*
X158405358Y-142018959D01*
X158014806Y-141758000D01*
X158405358Y-141497041D01*
X158714693Y-141034089D01*
X158823317Y-140488000D01*
X158714693Y-139941911D01*
X158405358Y-139478959D01*
X158014806Y-139218000D01*
X158405358Y-138957041D01*
X158714693Y-138494089D01*
X158823317Y-137948000D01*
X158714693Y-137401911D01*
X158405358Y-136938959D01*
X158014806Y-136678000D01*
X158405358Y-136417041D01*
X158714693Y-135954089D01*
X158823317Y-135408000D01*
X158714693Y-134861911D01*
X158405358Y-134398959D01*
X158025980Y-134145466D01*
X158027007Y-134145166D01*
X158465024Y-133792896D01*
X158734891Y-133299819D01*
X158752428Y-133217039D01*
X158630439Y-132995000D01*
X157087524Y-132995000D01*
X157087524Y-133015000D01*
X156833524Y-133015000D01*
X156833524Y-132995000D01*
X155290609Y-132995000D01*
X155168620Y-133217039D01*
X155186157Y-133299819D01*
X155456024Y-133792896D01*
X155894041Y-134145166D01*
X155895068Y-134145466D01*
X155515690Y-134398959D01*
X155206355Y-134861911D01*
X155097731Y-135408000D01*
X155142357Y-135632349D01*
X154263605Y-136511101D01*
X154019302Y-136876726D01*
X153996419Y-136991765D01*
X152674864Y-138313320D01*
X152637864Y-138223995D01*
X152391745Y-138149861D01*
X151563605Y-138978000D01*
X151577748Y-138992142D01*
X151398142Y-139171748D01*
X151384000Y-139157605D01*
X150555861Y-139985745D01*
X150629995Y-140231864D01*
X150647685Y-140238223D01*
X150576725Y-140267543D01*
X150493122Y-140351000D01*
X147632640Y-140351000D01*
X147593026Y-140311317D01*
X147087104Y-140101240D01*
X146539299Y-140100762D01*
X146033011Y-140309956D01*
X145645317Y-140696974D01*
X145435240Y-141202896D01*
X145434762Y-141750701D01*
X145643956Y-142256989D01*
X146030974Y-142644683D01*
X146536896Y-142854760D01*
X147084701Y-142855238D01*
X147590989Y-142646044D01*
X147632105Y-142605000D01*
X150492710Y-142605000D01*
X150574614Y-142687047D01*
X151098907Y-142904752D01*
X151666603Y-142905248D01*
X151757001Y-142867896D01*
X151757001Y-143937188D01*
X151600777Y-143881035D01*
X151030546Y-143908222D01*
X150629995Y-144074136D01*
X150555861Y-144320255D01*
X151384000Y-145148395D01*
X151398143Y-145134253D01*
X151577748Y-145313858D01*
X151563605Y-145328000D01*
X151577748Y-145342143D01*
X151398143Y-145521748D01*
X151384000Y-145507605D01*
X151369858Y-145521748D01*
X151190252Y-145342142D01*
X151204395Y-145328000D01*
X150376255Y-144499861D01*
X150130136Y-144573995D01*
X149937035Y-145111223D01*
X149943021Y-145236773D01*
X149914000Y-145231000D01*
X147632640Y-145231000D01*
X147593026Y-145191317D01*
X147087104Y-144981240D01*
X146539299Y-144980762D01*
X146033011Y-145189956D01*
X145645317Y-145576974D01*
X145435240Y-146082896D01*
X145434762Y-146630701D01*
X145643956Y-147136989D01*
X146030974Y-147524683D01*
X146536896Y-147734760D01*
X147084701Y-147735238D01*
X147590989Y-147526044D01*
X147632105Y-147485000D01*
X149447182Y-147485000D01*
X149956853Y-147994671D01*
X149956752Y-148110603D01*
X150173543Y-148635275D01*
X150574614Y-149037047D01*
X151098907Y-149254752D01*
X151666603Y-149255248D01*
X152191275Y-149038457D01*
X152593047Y-148637386D01*
X152810752Y-148113093D01*
X152810855Y-147994963D01*
X153680911Y-147124908D01*
X153925213Y-146759283D01*
X154011001Y-146327999D01*
X154011001Y-142091341D01*
X155183442Y-140918900D01*
X155206355Y-141034089D01*
X155515690Y-141497041D01*
X155906242Y-141758000D01*
X155515690Y-142018959D01*
X155206355Y-142481911D01*
X155097731Y-143028000D01*
X155206355Y-143574089D01*
X155515690Y-144037041D01*
X155906242Y-144298000D01*
X155515690Y-144558959D01*
X155206355Y-145021911D01*
X155097731Y-145568000D01*
X155206355Y-146114089D01*
X155515690Y-146577041D01*
X155906242Y-146838000D01*
X155515690Y-147098959D01*
X155206355Y-147561911D01*
X155097731Y-148108000D01*
X155206355Y-148654089D01*
X155515690Y-149117041D01*
X155781830Y-149294870D01*
X155500717Y-149350787D01*
X155135092Y-149595089D01*
X154230702Y-150499480D01*
X153857954Y-150573624D01*
X153395002Y-150882959D01*
X153085667Y-151345911D01*
X152977043Y-151892000D01*
X153085667Y-152438089D01*
X153395002Y-152901041D01*
X153857954Y-153210376D01*
X154146989Y-153267869D01*
X154067000Y-153670000D01*
X154067000Y-154923412D01*
X153900227Y-155089894D01*
X153667265Y-155650928D01*
X153666735Y-156258407D01*
X153898717Y-156819846D01*
X154077088Y-156998529D01*
X153934301Y-157057673D01*
X153755673Y-157236302D01*
X153659000Y-157469691D01*
X153659000Y-158210250D01*
X153817750Y-158369000D01*
X155067000Y-158369000D01*
X155067000Y-158349000D01*
X155321000Y-158349000D01*
X155321000Y-158369000D01*
X156570250Y-158369000D01*
X156729000Y-158210250D01*
X156729000Y-157469691D01*
X156632327Y-157236302D01*
X156453699Y-157057673D01*
X156311004Y-156998567D01*
X156487773Y-156822106D01*
X156720735Y-156261072D01*
X156721265Y-155653593D01*
X156489283Y-155092154D01*
X156321000Y-154923577D01*
X156321000Y-154136818D01*
X157138672Y-153319147D01*
X157254603Y-153319248D01*
X157779275Y-153102457D01*
X158181047Y-152701386D01*
X158398752Y-152177093D01*
X158399248Y-151609397D01*
X158182457Y-151084725D01*
X158140740Y-151042936D01*
X162923780Y-146259896D01*
X163135690Y-146577041D01*
X163526242Y-146838000D01*
X163135690Y-147098959D01*
X162826355Y-147561911D01*
X162717731Y-148108000D01*
X162826355Y-148654089D01*
X163135690Y-149117041D01*
X163453524Y-149329411D01*
X163453524Y-151034831D01*
X163245667Y-151345911D01*
X163137043Y-151892000D01*
X163245667Y-152438089D01*
X163555002Y-152901041D01*
X164017954Y-153210376D01*
X164564043Y-153319000D01*
X164619182Y-153319000D01*
X163223985Y-154714197D01*
X163172106Y-154662227D01*
X162611072Y-154429265D01*
X162003593Y-154428735D01*
X161442154Y-154660717D01*
X161012227Y-155089894D01*
X160779265Y-155650928D01*
X160778735Y-156258407D01*
X161010717Y-156819846D01*
X161189088Y-156998529D01*
X161046301Y-157057673D01*
X160867673Y-157236302D01*
X160771000Y-157469691D01*
X160771000Y-158210250D01*
X160929750Y-158369000D01*
X162179000Y-158369000D01*
X162179000Y-158349000D01*
X162433000Y-158349000D01*
X162433000Y-158369000D01*
X163682250Y-158369000D01*
X163841000Y-158210250D01*
X163841000Y-157469691D01*
X163744327Y-157236302D01*
X163588533Y-157080507D01*
X164007284Y-156997212D01*
X164372909Y-156752909D01*
X168060671Y-153065147D01*
X168176603Y-153065248D01*
X168378803Y-152981700D01*
X168376788Y-152984716D01*
X168291000Y-153416000D01*
X168291000Y-154923412D01*
X168124227Y-155089894D01*
X167891265Y-155650928D01*
X167890735Y-156258407D01*
X168122717Y-156819846D01*
X168301088Y-156998529D01*
X168158301Y-157057673D01*
X167979673Y-157236302D01*
X167883000Y-157469691D01*
X167883000Y-158210250D01*
X168041750Y-158369000D01*
X169291000Y-158369000D01*
X169291000Y-158349000D01*
X169545000Y-158349000D01*
X169545000Y-158369000D01*
X170794250Y-158369000D01*
X170953000Y-158210250D01*
X170953000Y-157469691D01*
X170856327Y-157236302D01*
X170677699Y-157057673D01*
X170535004Y-156998567D01*
X170711773Y-156822106D01*
X170944735Y-156261072D01*
X170945265Y-155653593D01*
X170713283Y-155092154D01*
X170545000Y-154923577D01*
X170545000Y-153882818D01*
X171362672Y-153065147D01*
X171478603Y-153065248D01*
X172003275Y-152848457D01*
X172405047Y-152447386D01*
X172622752Y-151923093D01*
X172623248Y-151355397D01*
X172406457Y-150830725D01*
X172005386Y-150428953D01*
X171481093Y-150211248D01*
X170913397Y-150210752D01*
X170388725Y-150427543D01*
X169986953Y-150828614D01*
X169769248Y-151352907D01*
X169769145Y-151471037D01*
X169320755Y-151919426D01*
X169321248Y-151355397D01*
X169104457Y-150830725D01*
X168703386Y-150428953D01*
X168179093Y-150211248D01*
X167611397Y-150210752D01*
X167086725Y-150427543D01*
X166684953Y-150828614D01*
X166467248Y-151352907D01*
X166467145Y-151471037D01*
X166046828Y-151891354D01*
X165938333Y-151345911D01*
X165707524Y-151000481D01*
X165707524Y-149329411D01*
X166025358Y-149117041D01*
X166334693Y-148654089D01*
X166443317Y-148108000D01*
X166334693Y-147561911D01*
X166025358Y-147098959D01*
X165634806Y-146838000D01*
X165848820Y-146695000D01*
X166344000Y-146695000D01*
X166775284Y-146609212D01*
X167140909Y-146364909D01*
X168067341Y-145438477D01*
X168440089Y-145364333D01*
X168903041Y-145054998D01*
X169212376Y-144592046D01*
X169321000Y-144045957D01*
X169321000Y-143990043D01*
X169258124Y-143673942D01*
X169599091Y-144014910D01*
X169599094Y-144014912D01*
X169803480Y-144219298D01*
X169877624Y-144592046D01*
X170186959Y-145054998D01*
X170649911Y-145364333D01*
X171196000Y-145472957D01*
X171742089Y-145364333D01*
X172205041Y-145054998D01*
X172514376Y-144592046D01*
X172623000Y-144045957D01*
X172623000Y-143990043D01*
X172514376Y-143443954D01*
X172205041Y-142981002D01*
X171742089Y-142671667D01*
X171369341Y-142597523D01*
X171192912Y-142421094D01*
X171192910Y-142421091D01*
X170492908Y-141721090D01*
X170127283Y-141476787D01*
X169695999Y-141390999D01*
X167173999Y-141390999D01*
X166742715Y-141476787D01*
X166377089Y-141721090D01*
X166197179Y-141901000D01*
X165848820Y-141901000D01*
X165634806Y-141758000D01*
X166025358Y-141497041D01*
X166334693Y-141034089D01*
X166443317Y-140488000D01*
X166334693Y-139941911D01*
X166025358Y-139478959D01*
X165634806Y-139218000D01*
X166025358Y-138957041D01*
X166334693Y-138494089D01*
X166443317Y-137948000D01*
X166334693Y-137401911D01*
X166025358Y-136938959D01*
X165634806Y-136678000D01*
X166025358Y-136417041D01*
X166334693Y-135954089D01*
X166443317Y-135408000D01*
X166398691Y-135183651D01*
X168944469Y-132637873D01*
X169209275Y-132528457D01*
X169292878Y-132445000D01*
X170304710Y-132445000D01*
X170386614Y-132527047D01*
X170910907Y-132744752D01*
X171478603Y-132745248D01*
X172003275Y-132528457D01*
X172405047Y-132127386D01*
X172622752Y-131603093D01*
X172623248Y-131035397D01*
X172406457Y-130510725D01*
X172005386Y-130108953D01*
X171933014Y-130078902D01*
X171950005Y-130071864D01*
X172024139Y-129825745D01*
X171196000Y-128997605D01*
X170367861Y-129825745D01*
X170441995Y-130071864D01*
X170459685Y-130078223D01*
X170388725Y-130107543D01*
X170305122Y-130191000D01*
X169293290Y-130191000D01*
X169211386Y-130108953D01*
X169139014Y-130078902D01*
X169156005Y-130071864D01*
X169230139Y-129825745D01*
X168402000Y-128997605D01*
X168387858Y-129011748D01*
X168208252Y-128832142D01*
X168222395Y-128818000D01*
X168581605Y-128818000D01*
X169409745Y-129646139D01*
X169655864Y-129572005D01*
X169788866Y-129201979D01*
X169942136Y-129572005D01*
X170188255Y-129646139D01*
X171016395Y-128818000D01*
X171375605Y-128818000D01*
X172203745Y-129646139D01*
X172449864Y-129572005D01*
X172642965Y-129034777D01*
X172615778Y-128464546D01*
X172449864Y-128063995D01*
X172203745Y-127989861D01*
X171375605Y-128818000D01*
X171016395Y-128818000D01*
X170188255Y-127989861D01*
X169942136Y-128063995D01*
X169809134Y-128434021D01*
X169655864Y-128063995D01*
X169409745Y-127989861D01*
X168581605Y-128818000D01*
X168222395Y-128818000D01*
X168208252Y-128803858D01*
X168387858Y-128624252D01*
X168402000Y-128638395D01*
X169230139Y-127810255D01*
X169177350Y-127635000D01*
X169230139Y-127459745D01*
X170367861Y-127459745D01*
X170420650Y-127635000D01*
X170367861Y-127810255D01*
X171196000Y-128638395D01*
X172024139Y-127810255D01*
X171971350Y-127635000D01*
X172024139Y-127459745D01*
X171196000Y-126631605D01*
X170367861Y-127459745D01*
X169230139Y-127459745D01*
X168402000Y-126631605D01*
X168387858Y-126645748D01*
X168208252Y-126466142D01*
X168222395Y-126452000D01*
X168581605Y-126452000D01*
X169409745Y-127280139D01*
X169655864Y-127206005D01*
X169788866Y-126835979D01*
X169942136Y-127206005D01*
X170188255Y-127280139D01*
X171016395Y-126452000D01*
X171375605Y-126452000D01*
X172203745Y-127280139D01*
X172449864Y-127206005D01*
X172642965Y-126668777D01*
X172615778Y-126098546D01*
X172449864Y-125697995D01*
X172203745Y-125623861D01*
X171375605Y-126452000D01*
X171016395Y-126452000D01*
X170188255Y-125623861D01*
X169942136Y-125697995D01*
X169809134Y-126068021D01*
X169655864Y-125697995D01*
X169409745Y-125623861D01*
X168581605Y-126452000D01*
X168222395Y-126452000D01*
X168208252Y-126437858D01*
X168387858Y-126258252D01*
X168402000Y-126272395D01*
X169230139Y-125444255D01*
X169156005Y-125198136D01*
X169138315Y-125191777D01*
X169209275Y-125162457D01*
X169292878Y-125079000D01*
X170304710Y-125079000D01*
X170386614Y-125161047D01*
X170458986Y-125191098D01*
X170441995Y-125198136D01*
X170367861Y-125444255D01*
X171196000Y-126272395D01*
X172024139Y-125444255D01*
X171950005Y-125198136D01*
X171932315Y-125191777D01*
X172003275Y-125162457D01*
X172405047Y-124761386D01*
X172622752Y-124237093D01*
X172623248Y-123669397D01*
X172406457Y-123144725D01*
X172005386Y-122742953D01*
X171481093Y-122525248D01*
X170913397Y-122524752D01*
X170388725Y-122741543D01*
X170305122Y-122825000D01*
X169783000Y-122825000D01*
X169783000Y-121308833D01*
X169951753Y-121200243D01*
X170094917Y-120990717D01*
X170145283Y-120742000D01*
X170145283Y-119542000D01*
X170101563Y-119309648D01*
X169964243Y-119096247D01*
X169813497Y-118993246D01*
X170068536Y-118611553D01*
X170161936Y-118142000D01*
X170068536Y-117672447D01*
X169802556Y-117274380D01*
X169608410Y-117144656D01*
X169837933Y-116971125D01*
X170084286Y-116551376D01*
X170099462Y-116459609D01*
X169974731Y-116269000D01*
X168783000Y-116269000D01*
X168783000Y-116289000D01*
X168529000Y-116289000D01*
X168529000Y-116269000D01*
X167337269Y-116269000D01*
X167212538Y-116459609D01*
X167227714Y-116551376D01*
X167474067Y-116971125D01*
X167532099Y-117015000D01*
X166606524Y-117015000D01*
X166327120Y-117070577D01*
X166025358Y-116618959D01*
X165634806Y-116358000D01*
X166025358Y-116097041D01*
X166207537Y-115824391D01*
X167212538Y-115824391D01*
X167337269Y-116015000D01*
X168529000Y-116015000D01*
X168529000Y-115059453D01*
X168783000Y-115059453D01*
X168783000Y-116015000D01*
X169974731Y-116015000D01*
X170099462Y-115824391D01*
X170084286Y-115732624D01*
X169837933Y-115312875D01*
X169449701Y-115019353D01*
X168978696Y-114896744D01*
X168783000Y-115059453D01*
X168529000Y-115059453D01*
X168333304Y-114896744D01*
X167862299Y-115019353D01*
X167474067Y-115312875D01*
X167227714Y-115732624D01*
X167212538Y-115824391D01*
X166207537Y-115824391D01*
X166334693Y-115634089D01*
X166443317Y-115088000D01*
X166334693Y-114541911D01*
X166025358Y-114078959D01*
X165562406Y-113769624D01*
X165016317Y-113661000D01*
X164144731Y-113661000D01*
X163598642Y-113769624D01*
X163135690Y-114078959D01*
X162826355Y-114541911D01*
X162717731Y-115088000D01*
X162826355Y-115634089D01*
X163135690Y-116097041D01*
X163526242Y-116358000D01*
X163135690Y-116618959D01*
X162826355Y-117081911D01*
X162717731Y-117628000D01*
X162826355Y-118174089D01*
X163135690Y-118637041D01*
X163526242Y-118898000D01*
X163135690Y-119158959D01*
X162826355Y-119621911D01*
X162717731Y-120168000D01*
X162826355Y-120714089D01*
X163135690Y-121177041D01*
X163526242Y-121438000D01*
X163135690Y-121698959D01*
X162826355Y-122161911D01*
X162717731Y-122708000D01*
X162826355Y-123254089D01*
X163135690Y-123717041D01*
X163526242Y-123978000D01*
X163135690Y-124238959D01*
X162826355Y-124701911D01*
X162717731Y-125248000D01*
X162826355Y-125794089D01*
X163135690Y-126257041D01*
X163526242Y-126518000D01*
X163135690Y-126778959D01*
X162826355Y-127241911D01*
X162717731Y-127788000D01*
X162826355Y-128334089D01*
X163135690Y-128797041D01*
X163515068Y-129050534D01*
X163514041Y-129050834D01*
X163076024Y-129403104D01*
X162806157Y-129896181D01*
X162788620Y-129978961D01*
X162910609Y-130201000D01*
X164453524Y-130201000D01*
X164453524Y-130181000D01*
X164707524Y-130181000D01*
X164707524Y-130201000D01*
X164727524Y-130201000D01*
X164727524Y-130455000D01*
X164707524Y-130455000D01*
X164707524Y-130475000D01*
X164453524Y-130475000D01*
X164453524Y-130455000D01*
X162910609Y-130455000D01*
X162788620Y-130677039D01*
X162806157Y-130759819D01*
X163076024Y-131252896D01*
X163514041Y-131605166D01*
X163515068Y-131605466D01*
X163135690Y-131858959D01*
X162931257Y-132164915D01*
X160297433Y-129531091D01*
X159931808Y-129286788D01*
X159500524Y-129201000D01*
X158228820Y-129201000D01*
X158014806Y-129058000D01*
X158405358Y-128797041D01*
X158714693Y-128334089D01*
X158823317Y-127788000D01*
X158714693Y-127241911D01*
X158405358Y-126778959D01*
X158014806Y-126518000D01*
X158405358Y-126257041D01*
X158714693Y-125794089D01*
X158823317Y-125248000D01*
X158714693Y-124701911D01*
X158405358Y-124238959D01*
X158014806Y-123978000D01*
X158405358Y-123717041D01*
X158714693Y-123254089D01*
X158823317Y-122708000D01*
X158714693Y-122161911D01*
X158405358Y-121698959D01*
X158014806Y-121438000D01*
X158405358Y-121177041D01*
X158714693Y-120714089D01*
X158823317Y-120168000D01*
X158714693Y-119621911D01*
X158405358Y-119158959D01*
X158014806Y-118898000D01*
X158405358Y-118637041D01*
X158714693Y-118174089D01*
X158823317Y-117628000D01*
X158714693Y-117081911D01*
X158405358Y-116618959D01*
X158244506Y-116511481D01*
X158392876Y-116483563D01*
X158606277Y-116346243D01*
X158749441Y-116136717D01*
X158799807Y-115888000D01*
X158799807Y-114288000D01*
X158756087Y-114055648D01*
X158618767Y-113842247D01*
X158409241Y-113699083D01*
X158160524Y-113648717D01*
X155760524Y-113648717D01*
X155588954Y-113681000D01*
X154797000Y-113681000D01*
X154797000Y-113159290D01*
X154879047Y-113077386D01*
X155096752Y-112553093D01*
X155097248Y-111985397D01*
X154880457Y-111460725D01*
X154479386Y-111058953D01*
X153955093Y-110841248D01*
X153387397Y-110840752D01*
X152862725Y-111057543D01*
X152460953Y-111458614D01*
X152430902Y-111530986D01*
X152423864Y-111513995D01*
X152177745Y-111439861D01*
X151349605Y-112268000D01*
X152177745Y-113096139D01*
X152423864Y-113022005D01*
X152430223Y-113004315D01*
X152459543Y-113075275D01*
X152543000Y-113158878D01*
X152543000Y-113681000D01*
X151539818Y-113681000D01*
X151924005Y-113521864D01*
X151998139Y-113275745D01*
X151170000Y-112447605D01*
X150341861Y-113275745D01*
X150415995Y-113521864D01*
X150858729Y-113681000D01*
X150368000Y-113681000D01*
X149936716Y-113766788D01*
X149672909Y-113943058D01*
X149283789Y-113942718D01*
X148685582Y-114189892D01*
X148227501Y-114647175D01*
X147979283Y-115244950D01*
X147978718Y-115892211D01*
X148225892Y-116490418D01*
X148683175Y-116948499D01*
X149280950Y-117196717D01*
X149928211Y-117197282D01*
X150526418Y-116950108D01*
X150984499Y-116492825D01*
X151216128Y-115935000D01*
X152795656Y-115935000D01*
X153123911Y-116154333D01*
X153670000Y-116262957D01*
X154216089Y-116154333D01*
X154544344Y-115935000D01*
X155130085Y-115935000D01*
X155164961Y-116120352D01*
X155302281Y-116333753D01*
X155511807Y-116476917D01*
X155630733Y-116501000D01*
X151531998Y-116501000D01*
X151100714Y-116586788D01*
X150735089Y-116831091D01*
X146412267Y-121153913D01*
X146258532Y-121097073D01*
X145285605Y-122070000D01*
X145299748Y-122084143D01*
X145120143Y-122263748D01*
X145106000Y-122249605D01*
X144133073Y-123222532D01*
X144231736Y-123489387D01*
X144841461Y-123715908D01*
X145491460Y-123691856D01*
X145679001Y-123614174D01*
X145679001Y-125099178D01*
X143703090Y-127075090D01*
X143458787Y-127440715D01*
X143372999Y-127871999D01*
X142942000Y-127871999D01*
X142942000Y-121805461D01*
X143460092Y-121805461D01*
X143484144Y-122455460D01*
X143686613Y-122944264D01*
X143953468Y-123042927D01*
X144926395Y-122070000D01*
X143953468Y-121097073D01*
X143686613Y-121195736D01*
X143460092Y-121805461D01*
X142942000Y-121805461D01*
X142942000Y-120917468D01*
X144133073Y-120917468D01*
X145106000Y-121890395D01*
X146078927Y-120917468D01*
X145980264Y-120650613D01*
X145370539Y-120424092D01*
X144720540Y-120448144D01*
X144231736Y-120650613D01*
X144133073Y-120917468D01*
X142942000Y-120917468D01*
X142942000Y-116722532D01*
X144133073Y-116722532D01*
X144231736Y-116989387D01*
X144841461Y-117215908D01*
X145491460Y-117191856D01*
X145980264Y-116989387D01*
X146078927Y-116722532D01*
X145106000Y-115749605D01*
X144133073Y-116722532D01*
X142942000Y-116722532D01*
X142942000Y-115305461D01*
X143460092Y-115305461D01*
X143484144Y-115955460D01*
X143686613Y-116444264D01*
X143953468Y-116542927D01*
X144926395Y-115570000D01*
X145285605Y-115570000D01*
X146258532Y-116542927D01*
X146525387Y-116444264D01*
X146751908Y-115834539D01*
X146727856Y-115184540D01*
X146525387Y-114695736D01*
X146258532Y-114597073D01*
X145285605Y-115570000D01*
X144926395Y-115570000D01*
X143953468Y-114597073D01*
X143686613Y-114695736D01*
X143460092Y-115305461D01*
X142942000Y-115305461D01*
X142942000Y-114417468D01*
X144133073Y-114417468D01*
X145106000Y-115390395D01*
X146078927Y-114417468D01*
X145980264Y-114150613D01*
X145370539Y-113924092D01*
X144720540Y-113948144D01*
X144231736Y-114150613D01*
X144133073Y-114417468D01*
X142942000Y-114417468D01*
X142942000Y-112412469D01*
X143271831Y-112742876D01*
X144248772Y-113148538D01*
X145306587Y-113149461D01*
X146284235Y-112745505D01*
X146979729Y-112051223D01*
X149723035Y-112051223D01*
X149750222Y-112621454D01*
X149916136Y-113022005D01*
X150162255Y-113096139D01*
X150990395Y-112268000D01*
X150162255Y-111439861D01*
X149916136Y-111513995D01*
X149723035Y-112051223D01*
X146979729Y-112051223D01*
X147032876Y-111998169D01*
X147339285Y-111260255D01*
X150341861Y-111260255D01*
X151170000Y-112088395D01*
X151998139Y-111260255D01*
X151924005Y-111014136D01*
X151386777Y-110821035D01*
X150816546Y-110848222D01*
X150415995Y-111014136D01*
X150341861Y-111260255D01*
X147339285Y-111260255D01*
X147438538Y-111021228D01*
X147439461Y-109963413D01*
X147035505Y-108985765D01*
X146702322Y-108652000D01*
X169527531Y-108652000D01*
X169197124Y-108981831D01*
X169197124Y-108981831D01*
G37*
X169197124Y-108981831D02*
X168791462Y-109958772D01*
X168790539Y-111016587D01*
X169194495Y-111994235D01*
X169941831Y-112742876D01*
X170918772Y-113148538D01*
X171976587Y-113149461D01*
X172954235Y-112745505D01*
X173288000Y-112412322D01*
X173288000Y-161907531D01*
X172958169Y-161577124D01*
X171981228Y-161171462D01*
X170923413Y-161170539D01*
X169945765Y-161574495D01*
X169197124Y-162321831D01*
X168791462Y-163298772D01*
X168790539Y-164356587D01*
X169194495Y-165334235D01*
X169527678Y-165668000D01*
X146702469Y-165668000D01*
X147032876Y-165338169D01*
X147438538Y-164361228D01*
X147439461Y-163303413D01*
X147035505Y-162325765D01*
X146288169Y-161577124D01*
X145311228Y-161171462D01*
X144253413Y-161170539D01*
X143275765Y-161574495D01*
X142942000Y-161907678D01*
X142942000Y-158781750D01*
X146547000Y-158781750D01*
X146547000Y-159522309D01*
X146643673Y-159755698D01*
X146822301Y-159934327D01*
X147055690Y-160031000D01*
X147796250Y-160031000D01*
X147955000Y-159872250D01*
X147955000Y-158623000D01*
X148209000Y-158623000D01*
X148209000Y-159872250D01*
X148367750Y-160031000D01*
X149108310Y-160031000D01*
X149341699Y-159934327D01*
X149520327Y-159755698D01*
X149617000Y-159522309D01*
X149617000Y-158781750D01*
X153659000Y-158781750D01*
X153659000Y-159522309D01*
X153755673Y-159755698D01*
X153934301Y-159934327D01*
X154167690Y-160031000D01*
X154908250Y-160031000D01*
X155067000Y-159872250D01*
X155067000Y-158623000D01*
X155321000Y-158623000D01*
X155321000Y-159872250D01*
X155479750Y-160031000D01*
X156220310Y-160031000D01*
X156453699Y-159934327D01*
X156632327Y-159755698D01*
X156729000Y-159522309D01*
X156729000Y-158781750D01*
X160771000Y-158781750D01*
X160771000Y-159522309D01*
X160867673Y-159755698D01*
X161046301Y-159934327D01*
X161279690Y-160031000D01*
X162020250Y-160031000D01*
X162179000Y-159872250D01*
X162179000Y-158623000D01*
X162433000Y-158623000D01*
X162433000Y-159872250D01*
X162591750Y-160031000D01*
X163332310Y-160031000D01*
X163565699Y-159934327D01*
X163744327Y-159755698D01*
X163841000Y-159522309D01*
X163841000Y-158781750D01*
X167883000Y-158781750D01*
X167883000Y-159522309D01*
X167979673Y-159755698D01*
X168158301Y-159934327D01*
X168391690Y-160031000D01*
X169132250Y-160031000D01*
X169291000Y-159872250D01*
X169291000Y-158623000D01*
X169545000Y-158623000D01*
X169545000Y-159872250D01*
X169703750Y-160031000D01*
X170444310Y-160031000D01*
X170677699Y-159934327D01*
X170856327Y-159755698D01*
X170953000Y-159522309D01*
X170953000Y-158781750D01*
X170794250Y-158623000D01*
X169545000Y-158623000D01*
X169291000Y-158623000D01*
X168041750Y-158623000D01*
X167883000Y-158781750D01*
X163841000Y-158781750D01*
X163682250Y-158623000D01*
X162433000Y-158623000D01*
X162179000Y-158623000D01*
X160929750Y-158623000D01*
X160771000Y-158781750D01*
X156729000Y-158781750D01*
X156570250Y-158623000D01*
X155321000Y-158623000D01*
X155067000Y-158623000D01*
X153817750Y-158623000D01*
X153659000Y-158781750D01*
X149617000Y-158781750D01*
X149458250Y-158623000D01*
X148209000Y-158623000D01*
X147955000Y-158623000D01*
X146705750Y-158623000D01*
X146547000Y-158781750D01*
X142942000Y-158781750D01*
X142942000Y-152174603D01*
X145384752Y-152174603D01*
X145601543Y-152699275D01*
X145685000Y-152782878D01*
X145685000Y-154686000D01*
X145770788Y-155117284D01*
X146015091Y-155482909D01*
X146554941Y-156022759D01*
X146554735Y-156258407D01*
X146786717Y-156819846D01*
X146965088Y-156998529D01*
X146822301Y-157057673D01*
X146643673Y-157236302D01*
X146547000Y-157469691D01*
X146547000Y-158210250D01*
X146705750Y-158369000D01*
X147955000Y-158369000D01*
X147955000Y-158349000D01*
X148209000Y-158349000D01*
X148209000Y-158369000D01*
X149458250Y-158369000D01*
X149617000Y-158210250D01*
X149617000Y-157469691D01*
X149520327Y-157236302D01*
X149341699Y-157057673D01*
X149199004Y-156998567D01*
X149375773Y-156822106D01*
X149608735Y-156261072D01*
X149609265Y-155653593D01*
X149377283Y-155092154D01*
X148948106Y-154662227D01*
X148387072Y-154429265D01*
X148148876Y-154429057D01*
X147939000Y-154219182D01*
X147939000Y-152783290D01*
X148021047Y-152701386D01*
X148238752Y-152177093D01*
X148239248Y-151609397D01*
X148022457Y-151084725D01*
X147621386Y-150682953D01*
X147097093Y-150465248D01*
X146529397Y-150464752D01*
X146004725Y-150681543D01*
X145602953Y-151082614D01*
X145385248Y-151606907D01*
X145384752Y-152174603D01*
X142942000Y-152174603D01*
X142942000Y-138761223D01*
X149937035Y-138761223D01*
X149964222Y-139331454D01*
X150130136Y-139732005D01*
X150376255Y-139806139D01*
X151204395Y-138978000D01*
X150376255Y-138149861D01*
X150130136Y-138223995D01*
X149937035Y-138761223D01*
X142942000Y-138761223D01*
X142942000Y-137970255D01*
X150555861Y-137970255D01*
X151384000Y-138798395D01*
X152212139Y-137970255D01*
X152138005Y-137724136D01*
X151600777Y-137531035D01*
X151030546Y-137558222D01*
X150629995Y-137724136D01*
X150555861Y-137970255D01*
X142942000Y-137970255D01*
X142942000Y-135349609D01*
X144606538Y-135349609D01*
X144621714Y-135441376D01*
X144868067Y-135861125D01*
X145256299Y-136154647D01*
X145727304Y-136277256D01*
X145923000Y-136114547D01*
X145923000Y-135159000D01*
X146177000Y-135159000D01*
X146177000Y-136114547D01*
X146372696Y-136277256D01*
X146489347Y-136246890D01*
X149688524Y-136246890D01*
X149858355Y-136656924D01*
X150248642Y-137085183D01*
X150773108Y-137331486D01*
X151003000Y-137210819D01*
X151003000Y-136017000D01*
X151257000Y-136017000D01*
X151257000Y-137210819D01*
X151486892Y-137331486D01*
X152011358Y-137085183D01*
X152401645Y-136656924D01*
X152571476Y-136246890D01*
X152450155Y-136017000D01*
X151257000Y-136017000D01*
X151003000Y-136017000D01*
X149809845Y-136017000D01*
X149688524Y-136246890D01*
X146489347Y-136246890D01*
X146843701Y-136154647D01*
X147231933Y-135861125D01*
X147478286Y-135441376D01*
X147493462Y-135349609D01*
X147368731Y-135159000D01*
X146177000Y-135159000D01*
X145923000Y-135159000D01*
X144731269Y-135159000D01*
X144606538Y-135349609D01*
X142942000Y-135349609D01*
X142942000Y-127871999D01*
X143372999Y-127871999D01*
X143372999Y-130192001D01*
X143458787Y-130623285D01*
X143703090Y-130988910D01*
X144543089Y-131828909D01*
X144908714Y-132073212D01*
X145009795Y-132093318D01*
X144903444Y-132164380D01*
X144637464Y-132562447D01*
X144544064Y-133032000D01*
X144637464Y-133501553D01*
X144903444Y-133899620D01*
X145097590Y-134029344D01*
X144868067Y-134202875D01*
X144621714Y-134622624D01*
X144606538Y-134714391D01*
X144731269Y-134905000D01*
X145923000Y-134905000D01*
X145923000Y-134885000D01*
X146177000Y-134885000D01*
X146177000Y-134905000D01*
X147368731Y-134905000D01*
X147493462Y-134714391D01*
X147478286Y-134622624D01*
X147231933Y-134202875D01*
X147173901Y-134159000D01*
X149899380Y-134159000D01*
X150056667Y-134394397D01*
X150399939Y-134623764D01*
X150248642Y-134694817D01*
X149858355Y-135123076D01*
X149688524Y-135533110D01*
X149809845Y-135763000D01*
X151003000Y-135763000D01*
X151003000Y-135743000D01*
X151257000Y-135743000D01*
X151257000Y-135763000D01*
X152450155Y-135763000D01*
X152571476Y-135533110D01*
X152401645Y-135123076D01*
X152011358Y-134694817D01*
X151860061Y-134623764D01*
X152203333Y-134394397D01*
X152523506Y-133915223D01*
X152614115Y-133459704D01*
X154618819Y-131455000D01*
X155692228Y-131455000D01*
X155895068Y-131590534D01*
X155894041Y-131590834D01*
X155456024Y-131943104D01*
X155186157Y-132436181D01*
X155168620Y-132518961D01*
X155290609Y-132741000D01*
X156833524Y-132741000D01*
X156833524Y-132721000D01*
X157087524Y-132721000D01*
X157087524Y-132741000D01*
X158630439Y-132741000D01*
X158752428Y-132518961D01*
X158734891Y-132436181D01*
X158465024Y-131943104D01*
X158027007Y-131590834D01*
X158025980Y-131590534D01*
X158228820Y-131455000D01*
X159033706Y-131455000D01*
X162762357Y-135183651D01*
X162717731Y-135408000D01*
X162759947Y-135620235D01*
X161883605Y-136496577D01*
X161639302Y-136862202D01*
X161553514Y-137293486D01*
X161553514Y-144442526D01*
X158602315Y-147393725D01*
X158405358Y-147098959D01*
X158014806Y-146838000D01*
X158405358Y-146577041D01*
X158714693Y-146114089D01*
X158823317Y-145568000D01*
X158714693Y-145021911D01*
X158405358Y-144558959D01*
X158014806Y-144298000D01*
X158405358Y-144037041D01*
X158714693Y-143574089D01*
X158823317Y-143028000D01*
X158714693Y-142481911D01*
X158405358Y-142018959D01*
X158014806Y-141758000D01*
X158405358Y-141497041D01*
X158714693Y-141034089D01*
X158823317Y-140488000D01*
X158714693Y-139941911D01*
X158405358Y-139478959D01*
X158014806Y-139218000D01*
X158405358Y-138957041D01*
X158714693Y-138494089D01*
X158823317Y-137948000D01*
X158714693Y-137401911D01*
X158405358Y-136938959D01*
X158014806Y-136678000D01*
X158405358Y-136417041D01*
X158714693Y-135954089D01*
X158823317Y-135408000D01*
X158714693Y-134861911D01*
X158405358Y-134398959D01*
X158025980Y-134145466D01*
X158027007Y-134145166D01*
X158465024Y-133792896D01*
X158734891Y-133299819D01*
X158752428Y-133217039D01*
X158630439Y-132995000D01*
X157087524Y-132995000D01*
X157087524Y-133015000D01*
X156833524Y-133015000D01*
X156833524Y-132995000D01*
X155290609Y-132995000D01*
X155168620Y-133217039D01*
X155186157Y-133299819D01*
X155456024Y-133792896D01*
X155894041Y-134145166D01*
X155895068Y-134145466D01*
X155515690Y-134398959D01*
X155206355Y-134861911D01*
X155097731Y-135408000D01*
X155142357Y-135632349D01*
X154263605Y-136511101D01*
X154019302Y-136876726D01*
X153996419Y-136991765D01*
X152674864Y-138313320D01*
X152637864Y-138223995D01*
X152391745Y-138149861D01*
X151563605Y-138978000D01*
X151577748Y-138992142D01*
X151398142Y-139171748D01*
X151384000Y-139157605D01*
X150555861Y-139985745D01*
X150629995Y-140231864D01*
X150647685Y-140238223D01*
X150576725Y-140267543D01*
X150493122Y-140351000D01*
X147632640Y-140351000D01*
X147593026Y-140311317D01*
X147087104Y-140101240D01*
X146539299Y-140100762D01*
X146033011Y-140309956D01*
X145645317Y-140696974D01*
X145435240Y-141202896D01*
X145434762Y-141750701D01*
X145643956Y-142256989D01*
X146030974Y-142644683D01*
X146536896Y-142854760D01*
X147084701Y-142855238D01*
X147590989Y-142646044D01*
X147632105Y-142605000D01*
X150492710Y-142605000D01*
X150574614Y-142687047D01*
X151098907Y-142904752D01*
X151666603Y-142905248D01*
X151757001Y-142867896D01*
X151757001Y-143937188D01*
X151600777Y-143881035D01*
X151030546Y-143908222D01*
X150629995Y-144074136D01*
X150555861Y-144320255D01*
X151384000Y-145148395D01*
X151398143Y-145134253D01*
X151577748Y-145313858D01*
X151563605Y-145328000D01*
X151577748Y-145342143D01*
X151398143Y-145521748D01*
X151384000Y-145507605D01*
X151369858Y-145521748D01*
X151190252Y-145342142D01*
X151204395Y-145328000D01*
X150376255Y-144499861D01*
X150130136Y-144573995D01*
X149937035Y-145111223D01*
X149943021Y-145236773D01*
X149914000Y-145231000D01*
X147632640Y-145231000D01*
X147593026Y-145191317D01*
X147087104Y-144981240D01*
X146539299Y-144980762D01*
X146033011Y-145189956D01*
X145645317Y-145576974D01*
X145435240Y-146082896D01*
X145434762Y-146630701D01*
X145643956Y-147136989D01*
X146030974Y-147524683D01*
X146536896Y-147734760D01*
X147084701Y-147735238D01*
X147590989Y-147526044D01*
X147632105Y-147485000D01*
X149447182Y-147485000D01*
X149956853Y-147994671D01*
X149956752Y-148110603D01*
X150173543Y-148635275D01*
X150574614Y-149037047D01*
X151098907Y-149254752D01*
X151666603Y-149255248D01*
X152191275Y-149038457D01*
X152593047Y-148637386D01*
X152810752Y-148113093D01*
X152810855Y-147994963D01*
X153680911Y-147124908D01*
X153925213Y-146759283D01*
X154011001Y-146327999D01*
X154011001Y-142091341D01*
X155183442Y-140918900D01*
X155206355Y-141034089D01*
X155515690Y-141497041D01*
X155906242Y-141758000D01*
X155515690Y-142018959D01*
X155206355Y-142481911D01*
X155097731Y-143028000D01*
X155206355Y-143574089D01*
X155515690Y-144037041D01*
X155906242Y-144298000D01*
X155515690Y-144558959D01*
X155206355Y-145021911D01*
X155097731Y-145568000D01*
X155206355Y-146114089D01*
X155515690Y-146577041D01*
X155906242Y-146838000D01*
X155515690Y-147098959D01*
X155206355Y-147561911D01*
X155097731Y-148108000D01*
X155206355Y-148654089D01*
X155515690Y-149117041D01*
X155781830Y-149294870D01*
X155500717Y-149350787D01*
X155135092Y-149595089D01*
X154230702Y-150499480D01*
X153857954Y-150573624D01*
X153395002Y-150882959D01*
X153085667Y-151345911D01*
X152977043Y-151892000D01*
X153085667Y-152438089D01*
X153395002Y-152901041D01*
X153857954Y-153210376D01*
X154146989Y-153267869D01*
X154067000Y-153670000D01*
X154067000Y-154923412D01*
X153900227Y-155089894D01*
X153667265Y-155650928D01*
X153666735Y-156258407D01*
X153898717Y-156819846D01*
X154077088Y-156998529D01*
X153934301Y-157057673D01*
X153755673Y-157236302D01*
X153659000Y-157469691D01*
X153659000Y-158210250D01*
X153817750Y-158369000D01*
X155067000Y-158369000D01*
X155067000Y-158349000D01*
X155321000Y-158349000D01*
X155321000Y-158369000D01*
X156570250Y-158369000D01*
X156729000Y-158210250D01*
X156729000Y-157469691D01*
X156632327Y-157236302D01*
X156453699Y-157057673D01*
X156311004Y-156998567D01*
X156487773Y-156822106D01*
X156720735Y-156261072D01*
X156721265Y-155653593D01*
X156489283Y-155092154D01*
X156321000Y-154923577D01*
X156321000Y-154136818D01*
X157138672Y-153319147D01*
X157254603Y-153319248D01*
X157779275Y-153102457D01*
X158181047Y-152701386D01*
X158398752Y-152177093D01*
X158399248Y-151609397D01*
X158182457Y-151084725D01*
X158140740Y-151042936D01*
X162923780Y-146259896D01*
X163135690Y-146577041D01*
X163526242Y-146838000D01*
X163135690Y-147098959D01*
X162826355Y-147561911D01*
X162717731Y-148108000D01*
X162826355Y-148654089D01*
X163135690Y-149117041D01*
X163453524Y-149329411D01*
X163453524Y-151034831D01*
X163245667Y-151345911D01*
X163137043Y-151892000D01*
X163245667Y-152438089D01*
X163555002Y-152901041D01*
X164017954Y-153210376D01*
X164564043Y-153319000D01*
X164619182Y-153319000D01*
X163223985Y-154714197D01*
X163172106Y-154662227D01*
X162611072Y-154429265D01*
X162003593Y-154428735D01*
X161442154Y-154660717D01*
X161012227Y-155089894D01*
X160779265Y-155650928D01*
X160778735Y-156258407D01*
X161010717Y-156819846D01*
X161189088Y-156998529D01*
X161046301Y-157057673D01*
X160867673Y-157236302D01*
X160771000Y-157469691D01*
X160771000Y-158210250D01*
X160929750Y-158369000D01*
X162179000Y-158369000D01*
X162179000Y-158349000D01*
X162433000Y-158349000D01*
X162433000Y-158369000D01*
X163682250Y-158369000D01*
X163841000Y-158210250D01*
X163841000Y-157469691D01*
X163744327Y-157236302D01*
X163588533Y-157080507D01*
X164007284Y-156997212D01*
X164372909Y-156752909D01*
X168060671Y-153065147D01*
X168176603Y-153065248D01*
X168378803Y-152981700D01*
X168376788Y-152984716D01*
X168291000Y-153416000D01*
X168291000Y-154923412D01*
X168124227Y-155089894D01*
X167891265Y-155650928D01*
X167890735Y-156258407D01*
X168122717Y-156819846D01*
X168301088Y-156998529D01*
X168158301Y-157057673D01*
X167979673Y-157236302D01*
X167883000Y-157469691D01*
X167883000Y-158210250D01*
X168041750Y-158369000D01*
X169291000Y-158369000D01*
X169291000Y-158349000D01*
X169545000Y-158349000D01*
X169545000Y-158369000D01*
X170794250Y-158369000D01*
X170953000Y-158210250D01*
X170953000Y-157469691D01*
X170856327Y-157236302D01*
X170677699Y-157057673D01*
X170535004Y-156998567D01*
X170711773Y-156822106D01*
X170944735Y-156261072D01*
X170945265Y-155653593D01*
X170713283Y-155092154D01*
X170545000Y-154923577D01*
X170545000Y-153882818D01*
X171362672Y-153065147D01*
X171478603Y-153065248D01*
X172003275Y-152848457D01*
X172405047Y-152447386D01*
X172622752Y-151923093D01*
X172623248Y-151355397D01*
X172406457Y-150830725D01*
X172005386Y-150428953D01*
X171481093Y-150211248D01*
X170913397Y-150210752D01*
X170388725Y-150427543D01*
X169986953Y-150828614D01*
X169769248Y-151352907D01*
X169769145Y-151471037D01*
X169320755Y-151919426D01*
X169321248Y-151355397D01*
X169104457Y-150830725D01*
X168703386Y-150428953D01*
X168179093Y-150211248D01*
X167611397Y-150210752D01*
X167086725Y-150427543D01*
X166684953Y-150828614D01*
X166467248Y-151352907D01*
X166467145Y-151471037D01*
X166046828Y-151891354D01*
X165938333Y-151345911D01*
X165707524Y-151000481D01*
X165707524Y-149329411D01*
X166025358Y-149117041D01*
X166334693Y-148654089D01*
X166443317Y-148108000D01*
X166334693Y-147561911D01*
X166025358Y-147098959D01*
X165634806Y-146838000D01*
X165848820Y-146695000D01*
X166344000Y-146695000D01*
X166775284Y-146609212D01*
X167140909Y-146364909D01*
X168067341Y-145438477D01*
X168440089Y-145364333D01*
X168903041Y-145054998D01*
X169212376Y-144592046D01*
X169321000Y-144045957D01*
X169321000Y-143990043D01*
X169258124Y-143673942D01*
X169599091Y-144014910D01*
X169599094Y-144014912D01*
X169803480Y-144219298D01*
X169877624Y-144592046D01*
X170186959Y-145054998D01*
X170649911Y-145364333D01*
X171196000Y-145472957D01*
X171742089Y-145364333D01*
X172205041Y-145054998D01*
X172514376Y-144592046D01*
X172623000Y-144045957D01*
X172623000Y-143990043D01*
X172514376Y-143443954D01*
X172205041Y-142981002D01*
X171742089Y-142671667D01*
X171369341Y-142597523D01*
X171192912Y-142421094D01*
X171192910Y-142421091D01*
X170492908Y-141721090D01*
X170127283Y-141476787D01*
X169695999Y-141390999D01*
X167173999Y-141390999D01*
X166742715Y-141476787D01*
X166377089Y-141721090D01*
X166197179Y-141901000D01*
X165848820Y-141901000D01*
X165634806Y-141758000D01*
X166025358Y-141497041D01*
X166334693Y-141034089D01*
X166443317Y-140488000D01*
X166334693Y-139941911D01*
X166025358Y-139478959D01*
X165634806Y-139218000D01*
X166025358Y-138957041D01*
X166334693Y-138494089D01*
X166443317Y-137948000D01*
X166334693Y-137401911D01*
X166025358Y-136938959D01*
X165634806Y-136678000D01*
X166025358Y-136417041D01*
X166334693Y-135954089D01*
X166443317Y-135408000D01*
X166398691Y-135183651D01*
X168944469Y-132637873D01*
X169209275Y-132528457D01*
X169292878Y-132445000D01*
X170304710Y-132445000D01*
X170386614Y-132527047D01*
X170910907Y-132744752D01*
X171478603Y-132745248D01*
X172003275Y-132528457D01*
X172405047Y-132127386D01*
X172622752Y-131603093D01*
X172623248Y-131035397D01*
X172406457Y-130510725D01*
X172005386Y-130108953D01*
X171933014Y-130078902D01*
X171950005Y-130071864D01*
X172024139Y-129825745D01*
X171196000Y-128997605D01*
X170367861Y-129825745D01*
X170441995Y-130071864D01*
X170459685Y-130078223D01*
X170388725Y-130107543D01*
X170305122Y-130191000D01*
X169293290Y-130191000D01*
X169211386Y-130108953D01*
X169139014Y-130078902D01*
X169156005Y-130071864D01*
X169230139Y-129825745D01*
X168402000Y-128997605D01*
X168387858Y-129011748D01*
X168208252Y-128832142D01*
X168222395Y-128818000D01*
X168581605Y-128818000D01*
X169409745Y-129646139D01*
X169655864Y-129572005D01*
X169788866Y-129201979D01*
X169942136Y-129572005D01*
X170188255Y-129646139D01*
X171016395Y-128818000D01*
X171375605Y-128818000D01*
X172203745Y-129646139D01*
X172449864Y-129572005D01*
X172642965Y-129034777D01*
X172615778Y-128464546D01*
X172449864Y-128063995D01*
X172203745Y-127989861D01*
X171375605Y-128818000D01*
X171016395Y-128818000D01*
X170188255Y-127989861D01*
X169942136Y-128063995D01*
X169809134Y-128434021D01*
X169655864Y-128063995D01*
X169409745Y-127989861D01*
X168581605Y-128818000D01*
X168222395Y-128818000D01*
X168208252Y-128803858D01*
X168387858Y-128624252D01*
X168402000Y-128638395D01*
X169230139Y-127810255D01*
X169177350Y-127635000D01*
X169230139Y-127459745D01*
X170367861Y-127459745D01*
X170420650Y-127635000D01*
X170367861Y-127810255D01*
X171196000Y-128638395D01*
X172024139Y-127810255D01*
X171971350Y-127635000D01*
X172024139Y-127459745D01*
X171196000Y-126631605D01*
X170367861Y-127459745D01*
X169230139Y-127459745D01*
X168402000Y-126631605D01*
X168387858Y-126645748D01*
X168208252Y-126466142D01*
X168222395Y-126452000D01*
X168581605Y-126452000D01*
X169409745Y-127280139D01*
X169655864Y-127206005D01*
X169788866Y-126835979D01*
X169942136Y-127206005D01*
X170188255Y-127280139D01*
X171016395Y-126452000D01*
X171375605Y-126452000D01*
X172203745Y-127280139D01*
X172449864Y-127206005D01*
X172642965Y-126668777D01*
X172615778Y-126098546D01*
X172449864Y-125697995D01*
X172203745Y-125623861D01*
X171375605Y-126452000D01*
X171016395Y-126452000D01*
X170188255Y-125623861D01*
X169942136Y-125697995D01*
X169809134Y-126068021D01*
X169655864Y-125697995D01*
X169409745Y-125623861D01*
X168581605Y-126452000D01*
X168222395Y-126452000D01*
X168208252Y-126437858D01*
X168387858Y-126258252D01*
X168402000Y-126272395D01*
X169230139Y-125444255D01*
X169156005Y-125198136D01*
X169138315Y-125191777D01*
X169209275Y-125162457D01*
X169292878Y-125079000D01*
X170304710Y-125079000D01*
X170386614Y-125161047D01*
X170458986Y-125191098D01*
X170441995Y-125198136D01*
X170367861Y-125444255D01*
X171196000Y-126272395D01*
X172024139Y-125444255D01*
X171950005Y-125198136D01*
X171932315Y-125191777D01*
X172003275Y-125162457D01*
X172405047Y-124761386D01*
X172622752Y-124237093D01*
X172623248Y-123669397D01*
X172406457Y-123144725D01*
X172005386Y-122742953D01*
X171481093Y-122525248D01*
X170913397Y-122524752D01*
X170388725Y-122741543D01*
X170305122Y-122825000D01*
X169783000Y-122825000D01*
X169783000Y-121308833D01*
X169951753Y-121200243D01*
X170094917Y-120990717D01*
X170145283Y-120742000D01*
X170145283Y-119542000D01*
X170101563Y-119309648D01*
X169964243Y-119096247D01*
X169813497Y-118993246D01*
X170068536Y-118611553D01*
X170161936Y-118142000D01*
X170068536Y-117672447D01*
X169802556Y-117274380D01*
X169608410Y-117144656D01*
X169837933Y-116971125D01*
X170084286Y-116551376D01*
X170099462Y-116459609D01*
X169974731Y-116269000D01*
X168783000Y-116269000D01*
X168783000Y-116289000D01*
X168529000Y-116289000D01*
X168529000Y-116269000D01*
X167337269Y-116269000D01*
X167212538Y-116459609D01*
X167227714Y-116551376D01*
X167474067Y-116971125D01*
X167532099Y-117015000D01*
X166606524Y-117015000D01*
X166327120Y-117070577D01*
X166025358Y-116618959D01*
X165634806Y-116358000D01*
X166025358Y-116097041D01*
X166207537Y-115824391D01*
X167212538Y-115824391D01*
X167337269Y-116015000D01*
X168529000Y-116015000D01*
X168529000Y-115059453D01*
X168783000Y-115059453D01*
X168783000Y-116015000D01*
X169974731Y-116015000D01*
X170099462Y-115824391D01*
X170084286Y-115732624D01*
X169837933Y-115312875D01*
X169449701Y-115019353D01*
X168978696Y-114896744D01*
X168783000Y-115059453D01*
X168529000Y-115059453D01*
X168333304Y-114896744D01*
X167862299Y-115019353D01*
X167474067Y-115312875D01*
X167227714Y-115732624D01*
X167212538Y-115824391D01*
X166207537Y-115824391D01*
X166334693Y-115634089D01*
X166443317Y-115088000D01*
X166334693Y-114541911D01*
X166025358Y-114078959D01*
X165562406Y-113769624D01*
X165016317Y-113661000D01*
X164144731Y-113661000D01*
X163598642Y-113769624D01*
X163135690Y-114078959D01*
X162826355Y-114541911D01*
X162717731Y-115088000D01*
X162826355Y-115634089D01*
X163135690Y-116097041D01*
X163526242Y-116358000D01*
X163135690Y-116618959D01*
X162826355Y-117081911D01*
X162717731Y-117628000D01*
X162826355Y-118174089D01*
X163135690Y-118637041D01*
X163526242Y-118898000D01*
X163135690Y-119158959D01*
X162826355Y-119621911D01*
X162717731Y-120168000D01*
X162826355Y-120714089D01*
X163135690Y-121177041D01*
X163526242Y-121438000D01*
X163135690Y-121698959D01*
X162826355Y-122161911D01*
X162717731Y-122708000D01*
X162826355Y-123254089D01*
X163135690Y-123717041D01*
X163526242Y-123978000D01*
X163135690Y-124238959D01*
X162826355Y-124701911D01*
X162717731Y-125248000D01*
X162826355Y-125794089D01*
X163135690Y-126257041D01*
X163526242Y-126518000D01*
X163135690Y-126778959D01*
X162826355Y-127241911D01*
X162717731Y-127788000D01*
X162826355Y-128334089D01*
X163135690Y-128797041D01*
X163515068Y-129050534D01*
X163514041Y-129050834D01*
X163076024Y-129403104D01*
X162806157Y-129896181D01*
X162788620Y-129978961D01*
X162910609Y-130201000D01*
X164453524Y-130201000D01*
X164453524Y-130181000D01*
X164707524Y-130181000D01*
X164707524Y-130201000D01*
X164727524Y-130201000D01*
X164727524Y-130455000D01*
X164707524Y-130455000D01*
X164707524Y-130475000D01*
X164453524Y-130475000D01*
X164453524Y-130455000D01*
X162910609Y-130455000D01*
X162788620Y-130677039D01*
X162806157Y-130759819D01*
X163076024Y-131252896D01*
X163514041Y-131605166D01*
X163515068Y-131605466D01*
X163135690Y-131858959D01*
X162931257Y-132164915D01*
X160297433Y-129531091D01*
X159931808Y-129286788D01*
X159500524Y-129201000D01*
X158228820Y-129201000D01*
X158014806Y-129058000D01*
X158405358Y-128797041D01*
X158714693Y-128334089D01*
X158823317Y-127788000D01*
X158714693Y-127241911D01*
X158405358Y-126778959D01*
X158014806Y-126518000D01*
X158405358Y-126257041D01*
X158714693Y-125794089D01*
X158823317Y-125248000D01*
X158714693Y-124701911D01*
X158405358Y-124238959D01*
X158014806Y-123978000D01*
X158405358Y-123717041D01*
X158714693Y-123254089D01*
X158823317Y-122708000D01*
X158714693Y-122161911D01*
X158405358Y-121698959D01*
X158014806Y-121438000D01*
X158405358Y-121177041D01*
X158714693Y-120714089D01*
X158823317Y-120168000D01*
X158714693Y-119621911D01*
X158405358Y-119158959D01*
X158014806Y-118898000D01*
X158405358Y-118637041D01*
X158714693Y-118174089D01*
X158823317Y-117628000D01*
X158714693Y-117081911D01*
X158405358Y-116618959D01*
X158244506Y-116511481D01*
X158392876Y-116483563D01*
X158606277Y-116346243D01*
X158749441Y-116136717D01*
X158799807Y-115888000D01*
X158799807Y-114288000D01*
X158756087Y-114055648D01*
X158618767Y-113842247D01*
X158409241Y-113699083D01*
X158160524Y-113648717D01*
X155760524Y-113648717D01*
X155588954Y-113681000D01*
X154797000Y-113681000D01*
X154797000Y-113159290D01*
X154879047Y-113077386D01*
X155096752Y-112553093D01*
X155097248Y-111985397D01*
X154880457Y-111460725D01*
X154479386Y-111058953D01*
X153955093Y-110841248D01*
X153387397Y-110840752D01*
X152862725Y-111057543D01*
X152460953Y-111458614D01*
X152430902Y-111530986D01*
X152423864Y-111513995D01*
X152177745Y-111439861D01*
X151349605Y-112268000D01*
X152177745Y-113096139D01*
X152423864Y-113022005D01*
X152430223Y-113004315D01*
X152459543Y-113075275D01*
X152543000Y-113158878D01*
X152543000Y-113681000D01*
X151539818Y-113681000D01*
X151924005Y-113521864D01*
X151998139Y-113275745D01*
X151170000Y-112447605D01*
X150341861Y-113275745D01*
X150415995Y-113521864D01*
X150858729Y-113681000D01*
X150368000Y-113681000D01*
X149936716Y-113766788D01*
X149672909Y-113943058D01*
X149283789Y-113942718D01*
X148685582Y-114189892D01*
X148227501Y-114647175D01*
X147979283Y-115244950D01*
X147978718Y-115892211D01*
X148225892Y-116490418D01*
X148683175Y-116948499D01*
X149280950Y-117196717D01*
X149928211Y-117197282D01*
X150526418Y-116950108D01*
X150984499Y-116492825D01*
X151216128Y-115935000D01*
X152795656Y-115935000D01*
X153123911Y-116154333D01*
X153670000Y-116262957D01*
X154216089Y-116154333D01*
X154544344Y-115935000D01*
X155130085Y-115935000D01*
X155164961Y-116120352D01*
X155302281Y-116333753D01*
X155511807Y-116476917D01*
X155630733Y-116501000D01*
X151531998Y-116501000D01*
X151100714Y-116586788D01*
X150735089Y-116831091D01*
X146412267Y-121153913D01*
X146258532Y-121097073D01*
X145285605Y-122070000D01*
X145299748Y-122084143D01*
X145120143Y-122263748D01*
X145106000Y-122249605D01*
X144133073Y-123222532D01*
X144231736Y-123489387D01*
X144841461Y-123715908D01*
X145491460Y-123691856D01*
X145679001Y-123614174D01*
X145679001Y-125099178D01*
X143703090Y-127075090D01*
X143458787Y-127440715D01*
X143372999Y-127871999D01*
X142942000Y-127871999D01*
X142942000Y-121805461D01*
X143460092Y-121805461D01*
X143484144Y-122455460D01*
X143686613Y-122944264D01*
X143953468Y-123042927D01*
X144926395Y-122070000D01*
X143953468Y-121097073D01*
X143686613Y-121195736D01*
X143460092Y-121805461D01*
X142942000Y-121805461D01*
X142942000Y-120917468D01*
X144133073Y-120917468D01*
X145106000Y-121890395D01*
X146078927Y-120917468D01*
X145980264Y-120650613D01*
X145370539Y-120424092D01*
X144720540Y-120448144D01*
X144231736Y-120650613D01*
X144133073Y-120917468D01*
X142942000Y-120917468D01*
X142942000Y-116722532D01*
X144133073Y-116722532D01*
X144231736Y-116989387D01*
X144841461Y-117215908D01*
X145491460Y-117191856D01*
X145980264Y-116989387D01*
X146078927Y-116722532D01*
X145106000Y-115749605D01*
X144133073Y-116722532D01*
X142942000Y-116722532D01*
X142942000Y-115305461D01*
X143460092Y-115305461D01*
X143484144Y-115955460D01*
X143686613Y-116444264D01*
X143953468Y-116542927D01*
X144926395Y-115570000D01*
X145285605Y-115570000D01*
X146258532Y-116542927D01*
X146525387Y-116444264D01*
X146751908Y-115834539D01*
X146727856Y-115184540D01*
X146525387Y-114695736D01*
X146258532Y-114597073D01*
X145285605Y-115570000D01*
X144926395Y-115570000D01*
X143953468Y-114597073D01*
X143686613Y-114695736D01*
X143460092Y-115305461D01*
X142942000Y-115305461D01*
X142942000Y-114417468D01*
X144133073Y-114417468D01*
X145106000Y-115390395D01*
X146078927Y-114417468D01*
X145980264Y-114150613D01*
X145370539Y-113924092D01*
X144720540Y-113948144D01*
X144231736Y-114150613D01*
X144133073Y-114417468D01*
X142942000Y-114417468D01*
X142942000Y-112412469D01*
X143271831Y-112742876D01*
X144248772Y-113148538D01*
X145306587Y-113149461D01*
X146284235Y-112745505D01*
X146979729Y-112051223D01*
X149723035Y-112051223D01*
X149750222Y-112621454D01*
X149916136Y-113022005D01*
X150162255Y-113096139D01*
X150990395Y-112268000D01*
X150162255Y-111439861D01*
X149916136Y-111513995D01*
X149723035Y-112051223D01*
X146979729Y-112051223D01*
X147032876Y-111998169D01*
X147339285Y-111260255D01*
X150341861Y-111260255D01*
X151170000Y-112088395D01*
X151998139Y-111260255D01*
X151924005Y-111014136D01*
X151386777Y-110821035D01*
X150816546Y-110848222D01*
X150415995Y-111014136D01*
X150341861Y-111260255D01*
X147339285Y-111260255D01*
X147438538Y-111021228D01*
X147439461Y-109963413D01*
X147035505Y-108985765D01*
X146702322Y-108652000D01*
X169527531Y-108652000D01*
X169197124Y-108981831D01*
M02*
