M48
;DRILL file {KiCad 4.0.1-stable} date 2018/10/11 18:19:25
;FORMAT={-:-/ absolute / metric / decimal}
FMAT,2
METRIC,TZ
T1C0.750
T2C0.800
T3C0.900
T4C1.000
T5C1.100
T6C3.200
%
G90
G05
M71
T1
X146.05Y-129.032
X146.05Y-131.032
X146.05Y-133.032
X146.05Y-135.032
X168.656Y-116.142
X168.656Y-118.142
X168.656Y-120.142
T2
X146.812Y-141.478
X146.812Y-146.358
X146.812Y-151.892
X151.17Y-112.268
X151.384Y-138.978
X151.384Y-141.478
X151.384Y-145.328
X151.384Y-147.828
X153.67Y-112.268
X153.67Y-114.808
X153.67Y-122.428
X154.432Y-151.892
X156.961Y-115.088
X156.961Y-117.628
X156.961Y-120.168
X156.961Y-122.708
X156.961Y-125.248
X156.961Y-127.788
X156.961Y-130.328
X156.961Y-132.868
X156.961Y-135.408
X156.961Y-137.948
X156.961Y-140.488
X156.961Y-143.028
X156.961Y-145.568
X156.961Y-148.108
X156.972Y-151.892
X164.581Y-115.088
X164.581Y-117.628
X164.581Y-120.168
X164.581Y-122.708
X164.581Y-125.248
X164.581Y-127.788
X164.581Y-130.328
X164.581Y-132.868
X164.581Y-135.408
X164.581Y-137.948
X164.581Y-140.488
X164.581Y-143.028
X164.581Y-145.568
X164.581Y-148.108
X164.592Y-151.892
X167.894Y-144.018
X167.894Y-151.638
X168.402Y-123.952
X168.402Y-126.452
X168.402Y-128.818
X168.402Y-131.318
X171.196Y-123.952
X171.196Y-126.452
X171.196Y-128.818
X171.196Y-131.318
X171.196Y-144.018
X171.196Y-151.638
T3
X148.082Y-155.956
X148.082Y-158.496
X155.194Y-155.956
X155.194Y-158.496
X162.306Y-155.956
X162.306Y-158.496
X169.418Y-155.956
X169.418Y-158.496
T4
X151.13Y-125.73
X151.13Y-128.27
X151.13Y-130.81
X151.13Y-133.35
X151.13Y-135.89
T5
X145.106Y-115.57
X145.106Y-122.07
X149.606Y-115.57
X149.606Y-122.07
T6
X144.78Y-110.49
X144.78Y-163.83
X171.45Y-110.49
X171.45Y-163.83
T0
M30
